<?xml version="1.0" encoding="utf-8"?>
<!-- Generator: Adobe Illustrator 24.1.0, SVG Export Plug-In . SVG Version: 6.00 Build 0)  -->
<svg version="1.1" id="Layer_1" xmlns="http://www.w3.org/2000/svg" xmlns:xlink="http://www.w3.org/1999/xlink" x="0px" y="0px"
	 viewBox="0 0 570 250" enable-background="new 0 0 570 250" xml:space="preserve">
<g>
	<path fill="#6264A7" d="M120.8,28.7H120l-0.6-1c-0.1-0.1-0.1-0.2-0.2-0.2c-0.1-0.1-0.1-0.1-0.2-0.2c-0.1,0-0.1-0.1-0.2-0.1
		s-0.1,0-0.2,0h-0.3v1.6h-0.6v-3.9h1.3c0.2,0,0.4,0,0.5,0.1c0.2,0,0.3,0.1,0.4,0.2s0.2,0.2,0.3,0.3c0.1,0.1,0.1,0.3,0.1,0.5
		c0,0.1,0,0.3-0.1,0.4c0,0.1-0.1,0.2-0.2,0.3c-0.1,0.1-0.2,0.2-0.3,0.2c-0.1,0.1-0.2,0.1-0.4,0.1l0,0c0.1,0,0.1,0.1,0.2,0.1
		s0.1,0.1,0.1,0.1c0,0.1,0.1,0.1,0.1,0.2s0.1,0.1,0.2,0.2L120.8,28.7z M118.4,25.3v1.3h0.5c0.1,0,0.2,0,0.3,0c0.1,0,0.2-0.1,0.2-0.1
		c0.1-0.1,0.1-0.1,0.1-0.2s0.1-0.2,0.1-0.3c0-0.2-0.1-0.3-0.2-0.4s-0.3-0.2-0.5-0.2L118.4,25.3L118.4,25.3z"/>
	<path fill="#6264A7" d="M123.4,27.5h-1.9c0,0.3,0.1,0.5,0.2,0.6c0.2,0.1,0.4,0.2,0.6,0.2c0.3,0,0.6-0.1,0.8-0.3v0.5
		c-0.3,0.2-0.6,0.2-1,0.2s-0.7-0.1-1-0.4c-0.2-0.3-0.4-0.6-0.4-1.1c0-0.4,0.1-0.8,0.4-1.1c0.3-0.3,0.6-0.4,1-0.4s0.7,0.1,0.9,0.4
		s0.3,0.6,0.3,1L123.4,27.5L123.4,27.5z M122.8,27c0-0.2-0.1-0.4-0.2-0.5s-0.3-0.2-0.4-0.2c-0.2,0-0.3,0.1-0.5,0.2
		c-0.1,0.1-0.2,0.3-0.2,0.5H122.8L122.8,27z"/>
	<path fill="#6264A7" d="M126,28.6c-0.2,0.1-0.5,0.2-0.8,0.2c-0.4,0-0.8-0.1-1-0.4c-0.3-0.3-0.4-0.6-0.4-1c0-0.5,0.1-0.8,0.4-1.1
		c0.3-0.3,0.6-0.4,1.1-0.4c0.3,0,0.5,0,0.7,0.1v0.6c-0.2-0.1-0.4-0.2-0.6-0.2c-0.3,0-0.5,0.1-0.7,0.3c-0.2,0.2-0.3,0.4-0.3,0.7
		c0,0.3,0.1,0.5,0.2,0.7c0.2,0.2,0.4,0.3,0.6,0.3s0.4-0.1,0.6-0.2C126,28,126,28.6,126,28.6z"/>
	<path fill="#6264A7" d="M129,27.5h-1.9c0,0.3,0.1,0.5,0.2,0.6c0.2,0.1,0.4,0.2,0.6,0.2c0.3,0,0.6-0.1,0.8-0.3v0.5
		c-0.3,0.2-0.6,0.2-1,0.2c-0.4,0-0.7-0.1-1-0.4c-0.2-0.3-0.4-0.6-0.4-1.1c0-0.4,0.1-0.8,0.4-1.1c0.3-0.3,0.6-0.4,1-0.4
		c0.4,0,0.7,0.1,0.9,0.4s0.3,0.6,0.3,1L129,27.5L129,27.5z M128.4,27c0-0.2-0.1-0.4-0.2-0.5c-0.1-0.1-0.3-0.2-0.4-0.2
		c-0.2,0-0.3,0.1-0.5,0.2c-0.1,0.1-0.2,0.3-0.2,0.5H128.4L128.4,27z"/>
	<path fill="#6264A7" d="M132.1,28.7h-0.6v-1.6c0-0.5-0.2-0.8-0.6-0.8c-0.2,0-0.4,0.1-0.5,0.2s-0.2,0.3-0.2,0.5v1.6h-0.6v-2.8h0.6
		v0.5l0,0c0.2-0.4,0.5-0.5,0.9-0.5c0.3,0,0.5,0.1,0.7,0.3c0.2,0.2,0.2,0.5,0.2,0.9L132.1,28.7L132.1,28.7z"/>
	<path fill="#6264A7" d="M134.4,28.7c-0.1,0.1-0.3,0.1-0.5,0.1c-0.5,0-0.8-0.3-0.8-0.8v-1.6h-0.5v-0.5h0.5v-0.6l0.6-0.2v0.8h0.7v0.5
		h-0.7v1.4c0,0.2,0,0.3,0.1,0.4s0.2,0.1,0.3,0.1s0.2,0,0.3-0.1L134.4,28.7L134.4,28.7z"/>
	<path fill="#6264A7" d="M146.1,28.5c-0.3,0.2-0.7,0.2-1.1,0.2c-0.6,0-1-0.2-1.4-0.5c-0.3-0.4-0.5-0.8-0.5-1.4s0.2-1.1,0.6-1.5
		c0.4-0.4,0.9-0.6,1.5-0.6c0.4,0,0.7,0.1,0.9,0.2v0.6c-0.3-0.2-0.6-0.2-0.9-0.2c-0.4,0-0.8,0.1-1,0.4c-0.3,0.3-0.4,0.6-0.4,1.1
		c0,0.4,0.1,0.8,0.4,1c0.2,0.3,0.6,0.4,1,0.4s0.7-0.1,1-0.3L146.1,28.5L146.1,28.5z"/>
	<path fill="#6264A7" d="M148,28.8c-0.4,0-0.8-0.1-1-0.4c-0.3-0.3-0.4-0.6-0.4-1c0-0.5,0.1-0.8,0.4-1.1c0.3-0.3,0.6-0.4,1.1-0.4
		c0.4,0,0.8,0.1,1,0.4s0.4,0.6,0.4,1.1c0,0.4-0.1,0.8-0.4,1.1C148.8,28.6,148.4,28.8,148,28.8z M148,26.4c-0.2,0-0.4,0.1-0.6,0.3
		c-0.1,0.2-0.2,0.4-0.2,0.7c0,0.3,0.1,0.5,0.2,0.7c0.1,0.2,0.3,0.3,0.6,0.3c0.2,0,0.4-0.1,0.6-0.2c0.1-0.2,0.2-0.4,0.2-0.7
		c0-0.3-0.1-0.5-0.2-0.7C148.5,26.4,148.3,26.4,148,26.4z"/>
	<path fill="#6264A7" d="M152.6,28.7H152v-1.6c0-0.5-0.2-0.8-0.6-0.8c-0.2,0-0.4,0.1-0.5,0.2s-0.2,0.3-0.2,0.5v1.6h-0.6v-2.8h0.6
		v0.5l0,0c0.2-0.4,0.5-0.5,0.9-0.5c0.3,0,0.5,0.1,0.7,0.3s0.2,0.5,0.2,0.9C152.6,27,152.6,28.7,152.6,28.7z"/>
	<path fill="#6264A7" d="M154.8,28.7c-0.1,0.1-0.3,0.1-0.5,0.1c-0.5,0-0.8-0.3-0.8-0.8v-1.6H153v-0.5h0.5v-0.6l0.6-0.2v0.8h0.7v0.5
		h-0.7v1.4c0,0.2,0,0.3,0.1,0.4s0.2,0.1,0.3,0.1s0.2,0,0.3-0.1L154.8,28.7L154.8,28.7z"/>
	<path fill="#6264A7" d="M157.5,28.7h-0.6v-0.4l0,0c-0.2,0.3-0.5,0.5-0.8,0.5s-0.5-0.1-0.6-0.2c-0.2-0.1-0.2-0.3-0.2-0.6
		c0-0.5,0.3-0.8,0.9-0.9L157,27c0-0.4-0.2-0.6-0.6-0.6c-0.3,0-0.6,0.1-0.9,0.3v-0.6c0.3-0.2,0.6-0.3,1-0.3c0.7,0,1.1,0.3,1.1,1
		L157.5,28.7L157.5,28.7z M156.9,27.3l-0.6,0.1c-0.2,0-0.3,0.1-0.4,0.1c-0.1,0.1-0.1,0.2-0.1,0.3c0,0.1,0,0.2,0.1,0.3
		c0.1,0.1,0.2,0.1,0.3,0.1c0.2,0,0.4-0.1,0.5-0.2s0.2-0.3,0.2-0.5V27.3L156.9,27.3z"/>
	<path fill="#6264A7" d="M160.3,28.6c-0.2,0.1-0.5,0.2-0.8,0.2c-0.4,0-0.8-0.1-1-0.4c-0.3-0.3-0.4-0.6-0.4-1c0-0.5,0.1-0.8,0.4-1.1
		c0.3-0.3,0.6-0.4,1.1-0.4c0.3,0,0.5,0,0.7,0.1v0.6c-0.2-0.1-0.4-0.2-0.6-0.2c-0.3,0-0.5,0.1-0.7,0.3c-0.2,0.2-0.3,0.4-0.3,0.7
		c0,0.3,0.1,0.5,0.2,0.7c0.2,0.2,0.4,0.3,0.6,0.3c0.2,0,0.4-0.1,0.6-0.2C160.3,28,160.3,28.6,160.3,28.6z"/>
	<path fill="#6264A7" d="M162.4,28.7c-0.1,0.1-0.3,0.1-0.5,0.1c-0.5,0-0.8-0.3-0.8-0.8v-1.6h-0.5v-0.5h0.5v-0.6l0.6-0.2v0.8h0.7v0.5
		h-0.7v1.4c0,0.2,0,0.3,0.1,0.4s0.2,0.1,0.3,0.1s0.2,0,0.3-0.1C162.4,28.2,162.4,28.7,162.4,28.7z"/>
	<path fill="#6264A7" d="M162.8,28.6V28c0.2,0.2,0.5,0.3,0.8,0.3c0.4,0,0.6-0.1,0.6-0.3c0-0.1,0-0.1,0-0.2s-0.1-0.1-0.1-0.1
		c-0.1,0-0.1-0.1-0.2-0.1c-0.1,0-0.2-0.1-0.3-0.1s-0.2-0.1-0.3-0.1c-0.1-0.1-0.2-0.1-0.2-0.2c-0.1-0.1-0.1-0.1-0.1-0.2s0-0.2,0-0.3
		c0-0.1,0-0.3,0.1-0.4s0.1-0.2,0.3-0.3c0.1-0.1,0.2-0.1,0.4-0.2c0.1,0,0.3-0.1,0.4-0.1c0.3,0,0.5,0,0.7,0.1v0.6
		c-0.2-0.1-0.4-0.2-0.7-0.2c-0.1,0-0.2,0-0.2,0s-0.1,0-0.2,0.1l-0.1,0.1v0.1c0,0.1,0,0.1,0,0.2l0.1,0.1c0.1,0,0.1,0.1,0.2,0.1
		s0.2,0.1,0.2,0.1c0.1,0,0.2,0.1,0.3,0.1c0.1,0.1,0.2,0.1,0.2,0.2c0.1,0.1,0.1,0.1,0.2,0.2c0,0.1,0.1,0.2,0.1,0.3
		c0,0.1,0,0.3-0.1,0.4s-0.2,0.2-0.3,0.3c-0.1,0.1-0.2,0.1-0.4,0.2c-0.1,0-0.3,0.1-0.5,0.1C163.3,28.8,163,28.7,162.8,28.6z"/>
	<path fill="#E1DFDD" d="M466.6,2.5H89.2c-1.8,0-3.2,1.4-3.2,3.2v14.4v222.5c0,1.8,1.4,3.2,3.2,3.2h22.7h102h252.7
		c1.8,0,3.2-1.4,3.2-3.2V20.1V5.7C469.8,3.9,468.4,2.5,466.6,2.5z"/>
	<path fill="#464775" d="M83.1,17.9h383.8V3.5c0-1.8-1.4-3.2-3.2-3.2H86.3c-1.8,0-3.2,1.4-3.2,3.2C83.1,3.5,83.1,17.9,83.1,17.9z"/>
	<path fill="#F3F2F1" d="M337.2,13.7H211.9c-0.9,0-1.6-0.7-1.6-1.6V6.3c0-0.9,0.7-1.6,1.6-1.6h125.3c0.9,0,1.6,0.7,1.6,1.6v5.9
		C338.8,13,338,13.7,337.2,13.7z"/>
	<path fill="#FFFFFF" d="M201.5,10.9c0,0.1,0,0.1,0,0.2c0,0.1-0.1,0.1-0.1,0.2c0,0.1-0.1,0.1-0.2,0.1c-0.1,0-0.1,0-0.2,0h-3.1
		c-0.1,0-0.1,0-0.2,0c-0.1,0-0.1-0.1-0.2-0.1c0,0-0.1-0.1-0.1-0.2c0-0.1,0-0.1,0-0.2V7.8c0-0.1,0-0.1,0-0.2s0.1-0.1,0.1-0.2
		s0.1-0.1,0.2-0.1c0.1,0,0.1,0,0.2,0h1.4c0,0,0.1,0,0.1,0.1s0.1,0.1,0.1,0.1s0,0.1-0.1,0.1l-0.1,0.1h-1.4c0,0-0.1,0-0.1,0.1
		l-0.1,0.1V11c0,0,0,0.1,0.1,0.1l0.1,0.1h3.1c0,0,0.1,0,0.1-0.1l0.1-0.1V9.5c0,0,0-0.1,0.1-0.1s0.1-0.1,0.1-0.1s0.1,0,0.1,0.1
		s0.1,0.1,0.1,0.1v1.4H201.5z M202.2,7.2c0,0.1,0,0.2-0.1,0.3c0,0.1-0.1,0.2-0.2,0.2l-2.1,2.1c0,0,0,0-0.1,0s-0.1,0-0.2,0.1
		c-0.1,0-0.2,0-0.2,0.1c-0.1,0-0.2,0-0.2,0.1c-0.1,0-0.1,0-0.2,0c-0.1,0-0.1,0-0.1,0s-0.1,0-0.1-0.1l-0.1-0.1V9.8c0-0.1,0-0.1,0-0.2
		c0-0.1,0-0.2,0.1-0.2c0-0.1,0-0.2,0.1-0.2c0-0.1,0-0.1,0.1-0.2c0-0.1,0-0.1,0-0.1l2.1-2.1c0.1-0.1,0.1-0.1,0.2-0.2
		c0.1,0,0.2-0.1,0.3-0.1s0.2,0,0.3,0.1c0.1,0,0.2,0.1,0.2,0.2c0.1,0.1,0.1,0.1,0.2,0.2C202.2,7.1,202.2,7.1,202.2,7.2z M201.9,7.2
		L201.9,7.2c0-0.1,0-0.2-0.1-0.2l-0.1-0.1h-0.1h-0.1c0,0-0.1,0-0.1,0.1l-2,2l-0.2,0.7l0.7-0.2l2-2l0.1-0.1
		C201.9,7.3,201.9,7.3,201.9,7.2z"/>
	<circle fill="#B4E0F5" cx="453.6" cy="9.1" r="6"/>
	<rect x="109" y="17.9" fill="#FFFFFF" width="102" height="225.7"/>
	<rect x="143.1" y="140" fill="#E1DFDD" width="40.7" height="4.8"/>
	<rect x="143.1" y="148.4" fill="#E1DFDD" width="28.2" height="3.2"/>
	<rect x="191.7" y="140.8" fill="#E1DFDD" width="12.3" height="3.2"/>
	<rect x="109" y="38.6" fill="#E2E2F6" width="102" height="30.8"/>
	<rect x="143.1" y="47.6" opacity="0.6" fill="#B3AFAB" enable-background="new    " width="40.7" height="4.8"/>
	<rect x="143.1" y="56" opacity="0.6" fill="#B3AFAB" enable-background="new    " width="22" height="3.2"/>
	<rect x="196.5" y="48.4" opacity="0.6" fill="#B3AFAB" enable-background="new    " width="7.6" height="3.2"/>
	<rect x="143.1" y="170.7" fill="#E1DFDD" width="30.8" height="4.8"/>
	<rect x="143.1" y="179.1" fill="#E1DFDD" width="30.8" height="3.2"/>
	<rect x="196.4" y="171.5" fill="#E1DFDD" width="7.6" height="3.2"/>
	<rect x="143.1" y="202.7" fill="#E1DFDD" width="40.7" height="4.8"/>
	<rect x="143.1" y="211.1" fill="#E1DFDD" width="28.2" height="3.2"/>
	<rect x="193.6" y="203.5" fill="#E1DFDD" width="10.5" height="3.2"/>
	<rect x="143.1" y="108.6" fill="#E1DFDD" width="22.3" height="4.8"/>
	<rect x="143.1" y="117" fill="#E1DFDD" width="42.4" height="3.2"/>
	<rect x="196.4" y="109.4" fill="#E1DFDD" width="7.6" height="3.2"/>
	<circle fill="#E1DFDD" cx="126.2" cy="146.3" r="8.8"/>
	
		<radialGradient id="SVGID_1_" cx="126.2526" cy="-815.9381" r="4.9636" gradientTransform="matrix(1 0 0 -1 0 -666)" gradientUnits="userSpaceOnUse">
		<stop  offset="6.680000e-02" style="stop-color:#9B643D"/>
		<stop  offset="0.8469" style="stop-color:#E0BB95"/>
	</radialGradient>
	<path fill="url(#SVGID_1_)" d="M126.2,155.1c1,0,2-0.2,3-0.5c-0.3-0.2-0.4-0.5-0.4-0.9v-3.8l-4.5,0.1v3.8c0,0.4-0.3,0.7-0.7,0.8
		C124.3,154.9,125.2,155.1,126.2,155.1z"/>
	<path fill="#EE8F94" d="M131.6,138.9l-11.1,0.1l-0.8-0.4l0.8-0.4l11.1-0.1c0.2,0,0.4,0.2,0.4,0.4l0,0
		C131.9,138.7,131.8,138.9,131.6,138.9z"/>
	
		<linearGradient id="SVGID_2_" gradientUnits="userSpaceOnUse" x1="860.2805" y1="-1605.9015" x2="864.5745" y2="-1611.5721" gradientTransform="matrix(0.9584 0.2854 0.2854 -0.9584 -241.4425 -1650.8849)">
		<stop  offset="0.2689" style="stop-color:#594539"/>
		<stop  offset="0.8111" style="stop-color:#463228"/>
	</linearGradient>
	<circle fill="url(#SVGID_2_)" cx="126.1" cy="137.4" r="3.6"/>
	<circle fill="#59453C" cx="126.1" cy="145.7" r="7"/>
	<path fill="none" d="M124.9,151"/>
	<path fill="none" d="M127,151.4"/>
	<ellipse fill="#E0BB95" cx="126.2" cy="147.1" rx="5.3" ry="6.1"/>
	<path fill="#E0BB95" d="M120.6,146.9c-0.3,0.2-0.5,0.5-0.5,0.9s0.1,0.7,0.3,1c0.2,0.3,0.5,0.5,0.9,0.5s0.8-0.1,1-0.3
		c0.3-0.2,0.4-0.5,0.5-0.9c0-0.4-0.1-0.7-0.3-1c-0.2-0.3-0.6-0.4-1-0.5C121.2,146.6,120.9,146.7,120.6,146.9z"/>
	<path fill="#E0BB95" d="M129.9,146.9c-0.3,0.2-0.5,0.5-0.5,0.9s0.1,0.7,0.3,1s0.5,0.5,0.9,0.5s0.8-0.1,1-0.3
		c0.3-0.2,0.4-0.5,0.5-0.9c0-0.4-0.1-0.7-0.3-1s-0.6-0.4-1-0.5C130.5,146.6,130.2,146.7,129.9,146.9z"/>
	<path fill="#594539" d="M121.2,142c-1.3,1.8-1.5,3.6-1,5.5c0.8-1.2,1.6-0.8,2.7-1.1c1.4-0.4,3-0.3,4.1-1.4c1.4-1.4,1.5-3.7,1.4-4.9
		C128.3,139.8,123.2,139.3,121.2,142z"/>
	<path fill="#594539" d="M128,141.1c-0.5,1.2-0.3,5.5,4.1,5.7c0.1-1.8,0.3-3.6-0.8-5C130.4,140.6,128.8,139.3,128,141.1z"/>
	<path fill="#9B643D" d="M128.5,150c-1.2,0-2.1-0.9-2.1-2.1c0-1.2,0.9-2.1,2.1-2.1s2.1,0.9,2.1,2.1S129.6,150,128.5,150z
		 M128.5,146.3c-0.9,0-1.6,0.7-1.6,1.6c0,0.9,0.7,1.6,1.6,1.6c0.9,0,1.6-0.7,1.6-1.6C130.1,147.1,129.4,146.3,128.5,146.3z"/>
	<path fill="#9B643D" d="M123.9,150.1c-1.2,0-2.1-0.9-2.1-2.1c0-1.2,0.9-2.1,2.1-2.1s2.1,0.9,2.1,2.1
		C126,149.2,125.1,150.1,123.9,150.1z M123.9,146.4c-0.9,0-1.6,0.7-1.6,1.6c0,0.9,0.7,1.6,1.6,1.6s1.6-0.7,1.6-1.6
		C125.5,147.1,124.8,146.4,123.9,146.4z"/>
	<path fill="#9B643D" d="M125.7,147.8c-0.1,0-0.3-0.1-0.3-0.3c0-0.1,0.1-0.3,0.3-0.3h0.9l0,0c0.1,0,0.3,0.1,0.3,0.3
		s-0.1,0.3-0.3,0.3H125.7L125.7,147.8z"/>
	
		<ellipse transform="matrix(4.299921e-03 -1 1 4.299921e-03 -24.4598 271.3449)" fill="#33312D" cx="124" cy="148" rx="0.7" ry="0.4"/>
	
		<ellipse transform="matrix(4.299921e-03 -1 1 4.299921e-03 -20.214 275.5856)" fill="#33312D" cx="128.3" cy="147.9" rx="0.7" ry="0.4"/>
	<path fill="#BF8F68" d="M126.9,151.3c-0.3,0.2-0.7,0.3-1.2,0.2c-0.4-0.1-0.8-0.4-1-0.7c0-0.1,0-0.2,0.1-0.3c0.1,0,0.1,0,0.2,0l0,0
		c0.3,0.1,0.5,0.3,0.8,0.3c0.3,0.1,0.6,0,0.9,0.1l0,0c0.1,0,0.2,0.1,0.2,0.2C127,151.2,126.9,151.3,126.9,151.3z"/>
	<rect x="143.1" y="78.3" fill="#E1DFDD" width="42.4" height="4.8"/>
	<rect x="143.1" y="86.7" fill="#E1DFDD" width="40.7" height="3.2"/>
	<rect x="193.7" y="79.1" fill="#E1DFDD" width="10.4" height="3.2"/>
	<rect x="117.1" y="30.9" fill="#6264A7" width="17.7" height="2"/>
	<rect x="117.1" y="24.8" fill="#6264A7" width="17.7" height="4"/>
	<path fill="#33344A" d="M109,243.6H86.3c-1.8,0-3.2-1.4-3.2-3.2V17.9H109V243.6z"/>
	<path fill="#FFFFFF" d="M93.4,70.4c0,0.2,0,0.3-0.1,0.5s-0.2,0.3-0.3,0.4c-0.1,0.1-0.2,0.2-0.4,0.3c-0.2,0.1-0.3,0.1-0.5,0.1
		s-0.3,0-0.5-0.1s-0.3-0.2-0.4-0.3c-0.1-0.1-0.2-0.2-0.3-0.4c-0.1-0.2-0.1-0.3-0.1-0.5s0-0.3,0.1-0.5s0.2-0.3,0.3-0.4
		c0.1-0.1,0.2-0.2,0.4-0.3c0.2-0.1,0.3-0.1,0.5-0.1s0.3,0,0.5,0.1s0.3,0.2,0.4,0.3c0.1,0.1,0.2,0.2,0.3,0.4
		C93.4,70.1,93.4,70.3,93.4,70.4z M93.4,72.3v3.2h-0.6c-0.2,0-0.4,0-0.6-0.1c-0.2,0-0.4-0.1-0.6-0.2s-0.3-0.2-0.5-0.4
		c-0.1-0.2-0.2-0.4-0.2-0.6v-1.9C90.9,72.3,93.4,72.3,93.4,72.3z M97.8,71.7v3.7c0,0.2-0.1,0.5-0.2,0.6s-0.3,0.3-0.5,0.4
		s-0.4,0.2-0.6,0.2s-0.4,0.1-0.6,0.1s-0.4,0-0.6-0.1c-0.2,0-0.4-0.1-0.6-0.2s-0.3-0.2-0.5-0.4c-0.1-0.2-0.2-0.4-0.2-0.6v-3.7H97.8z
		 M97.2,69.8c0,0.2,0,0.3-0.1,0.5s-0.2,0.3-0.3,0.4c-0.1,0.1-0.2,0.2-0.4,0.3c-0.2,0.1-0.3,0.1-0.5,0.1s-0.3,0-0.5-0.1
		s-0.3-0.2-0.4-0.3c-0.1-0.1-0.2-0.2-0.3-0.4c-0.1-0.2-0.1-0.3-0.1-0.5s0-0.3,0.1-0.5s0.2-0.3,0.3-0.4c0.1-0.1,0.2-0.2,0.4-0.3
		c0.2-0.1,0.3-0.1,0.5-0.1s0.3,0,0.5,0.1s0.3,0.2,0.4,0.3c0.1,0.1,0.2,0.2,0.3,0.4C97.1,69.5,97.2,69.6,97.2,69.8z M100.9,70.4
		c0,0.2,0,0.3-0.1,0.5s-0.2,0.3-0.3,0.4c-0.1,0.1-0.2,0.2-0.4,0.3c-0.2,0.1-0.3,0.1-0.5,0.1s-0.3,0-0.5-0.1s-0.3-0.2-0.4-0.3
		c-0.1-0.1-0.2-0.2-0.3-0.4c-0.1-0.2-0.1-0.3-0.1-0.5s0-0.3,0.1-0.5s0.2-0.3,0.3-0.4c0.1-0.1,0.2-0.2,0.4-0.3
		c0.2-0.1,0.3-0.1,0.5-0.1s0.3,0,0.5,0.1s0.3,0.2,0.4,0.3c0.1,0.1,0.2,0.2,0.3,0.4C100.9,70.1,100.9,70.3,100.9,70.4z M100.9,72.3
		v1.9c0,0.2-0.1,0.5-0.2,0.6c-0.1,0.2-0.3,0.3-0.5,0.4s-0.4,0.2-0.6,0.2s-0.4,0.1-0.6,0.1h-0.6v-3.2H100.9L100.9,72.3z"/>
	<path fill="#FFFFFF" d="M100.2,91.2v5.9c0,0.2-0.1,0.4-0.2,0.6c-0.1,0.1-0.3,0.2-0.5,0.3c-0.3,0.1-0.6,0.2-0.9,0.2
		c-0.3,0.1-0.6,0.1-0.9,0.1s-0.6,0.1-0.9,0.1s-0.6,0-0.9,0s-0.6,0-0.9,0s-0.6,0-0.9-0.1c-0.3,0-0.6-0.1-0.9-0.1
		c-0.3-0.1-0.6-0.1-0.9-0.2c-0.2-0.1-0.4-0.2-0.5-0.3c-0.1-0.1-0.2-0.3-0.2-0.6v-5.9c0-0.1,0-0.2,0.1-0.4c0.1-0.1,0.1-0.2,0.2-0.3
		c0.1-0.1,0.2-0.2,0.3-0.2c0.1-0.1,0.2-0.1,0.4-0.1h1.6c0-0.1,0-0.1,0-0.2s0-0.1,0-0.2s0-0.1,0-0.2s0-0.1,0-0.2s0.1-0.1,0.1-0.1
		s0.1-0.1,0.2-0.1s0.1,0,0.2,0.1l0.1,0.1c0,0,0,0.1,0,0.2s0,0.1,0,0.2s0,0.1,0,0.2s0,0.1,0,0.2h2.5c0-0.1,0-0.1,0-0.2s0-0.1,0-0.2
		s0-0.1,0-0.2s0-0.1,0-0.2s0.1-0.1,0.1-0.1s0.1-0.1,0.2-0.1s0.1,0,0.2,0.1l0.1,0.1c0,0,0,0.1,0,0.2s0,0.1,0,0.2s0,0.1,0,0.2
		s0,0.1,0,0.2h1.6c0.1,0,0.2,0,0.4,0.1c0.1,0.1,0.2,0.1,0.3,0.2s0.2,0.2,0.2,0.3C100.2,91,100.2,91.1,100.2,91.2z M93.3,94.1h1.3
		v-1.3h-1.3V94.1z M93.3,95.9h1.3v-1.3h-1.3V95.9z M95.2,94.1h1.3v-1.3h-1.3V94.1z M95.2,95.9h1.3v-1.3h-1.3V95.9z M97.1,94.1h1.3
		v-1.3h-1.3V94.1z"/>
	<path fill="#FFFFFF" d="M99.7,111.8v8.1c0,0.1,0,0.2-0.1,0.4c-0.1,0.1-0.1,0.2-0.2,0.3c-0.1,0.1-0.2,0.2-0.3,0.2
		c-0.1,0.1-0.2,0.1-0.4,0.1h-5.6c-0.1,0-0.2,0-0.4-0.1c-0.1-0.1-0.2-0.1-0.3-0.2c-0.1-0.1-0.2-0.2-0.2-0.3c-0.1-0.1-0.1-0.2-0.1-0.4
		v-5.3h3.1v-3.8l0,0h3.4c0.1,0,0.2,0,0.4,0.1c0.1,0.1,0.2,0.1,0.3,0.2c0.1,0.1,0.2,0.2,0.2,0.3C99.7,111.6,99.7,111.7,99.7,111.8z
		 M94.7,111.2v2.9h-2.4c0-0.1,0.1-0.1,0.1-0.2s0.1-0.1,0.1-0.2c0.2-0.3,0.5-0.6,0.7-0.9c0.3-0.3,0.5-0.6,0.8-0.8
		c0.1-0.1,0.2-0.3,0.3-0.4C94.4,111.4,94.6,111.3,94.7,111.2z"/>
	<path fill="#FFFFFF" d="M100.7,224.8c0,0.1,0,0.2-0.1,0.3c0,0.1-0.1,0.2-0.2,0.3l-1.5,1.5c0.1,0,0.2,0.1,0.2,0.1
		c0.1,0.1,0.1,0.1,0.2,0.2c0.1,0.1,0.1,0.2,0.1,0.2c0,0.1,0,0.2,0,0.3v2.3c0,0.1,0,0.2-0.1,0.3c0,0.1-0.1,0.2-0.2,0.3
		s-0.2,0.1-0.3,0.2c-0.1,0-0.2,0.1-0.3,0.1h-5.9c-0.1,0-0.2,0-0.3-0.1c-0.1,0-0.2-0.1-0.3-0.2c-0.1-0.1-0.1-0.2-0.2-0.3
		c0-0.1-0.1-0.2-0.1-0.3v-5.9c0-0.1,0-0.2,0.1-0.3c0-0.1,0.1-0.2,0.2-0.3s0.2-0.1,0.3-0.2c0.1,0,0.2-0.1,0.3-0.1h2.3
		c0.1,0,0.2,0,0.3,0c0.1,0,0.2,0.1,0.2,0.1c0.1,0.1,0.1,0.1,0.2,0.2c0.1,0.1,0.1,0.1,0.1,0.2l1.5-1.5c0.1-0.1,0.2-0.1,0.3-0.2
		c0.1,0,0.2-0.1,0.3-0.1c0.1,0,0.2,0,0.3,0.1c0.1,0,0.2,0.1,0.3,0.2l1.7,1.7c0.1,0.1,0.2,0.2,0.2,0.3
		C100.7,224.6,100.7,224.7,100.7,224.8z M95.5,226.9v-2.6c0-0.1,0-0.1-0.1-0.2c-0.1-0.1-0.1-0.1-0.2-0.1h-2.3c-0.1,0-0.1,0-0.2,0.1
		s-0.1,0.1-0.1,0.2v2.6H95.5z M95.5,230.4v-2.9h-2.9v2.6c0,0.1,0,0.1,0.1,0.2c0.1,0.1,0.1,0.1,0.2,0.1L95.5,230.4L95.5,230.4z
		 M100.2,224.8v-0.1c0,0,0-0.1-0.1-0.1l-1.7-1.7c-0.1-0.1-0.1-0.1-0.2-0.1h-0.1c0,0-0.1,0-0.1,0.1l-1.7,1.7c0,0,0,0.1-0.1,0.1v0.1
		v0.1c0,0,0,0.1,0.1,0.1l1.7,1.7l0.1,0.1h0.1h0.1c0,0,0.1,0,0.1-0.1l1.7-1.7c0,0,0-0.1,0.1-0.1C100.1,224.9,100.2,224.9,100.2,224.8
		z M97.1,226.9l-1.1-1.1v1.1H97.1z M99,230.1v-2.3c0-0.1,0-0.1-0.1-0.2c-0.1-0.1-0.1-0.1-0.2-0.1h-2.6v2.9h2.6c0.1,0,0.1,0,0.2-0.1
		C99,230.2,99,230.2,99,230.1z"/>
	<path fill="#FFFFFF" d="M100.4,31.2c0,0.1,0,0.2-0.1,0.2s-0.1,0.1-0.1,0.2c-0.1,0.1-0.1,0.1-0.2,0.1s-0.2,0.1-0.2,0.1h-7.5
		c-0.1,0-0.2,0-0.2-0.1c-0.1,0-0.1-0.1-0.2-0.1c-0.1-0.1-0.1-0.1-0.1-0.2s-0.1-0.2-0.1-0.2c0-0.2,0-0.3,0.1-0.3
		c0.1-0.1,0.1-0.1,0.2-0.2c0.1,0,0.2-0.1,0.3-0.1c0.1,0,0.2-0.1,0.3-0.1c0.1,0,0.2-0.1,0.2-0.2c0.1-0.1,0.1-0.2,0.1-0.3v-2.5
		c0-0.3,0-0.6,0.1-0.8c0.1-0.3,0.2-0.5,0.3-0.7c0.1-0.2,0.3-0.4,0.5-0.6s0.4-0.4,0.6-0.5s0.5-0.2,0.7-0.3c0.3-0.1,0.5-0.1,0.8-0.1
		s0.6,0,0.8,0.1c0.3,0.1,0.5,0.2,0.8,0.3c0.2,0.1,0.4,0.3,0.6,0.5s0.4,0.4,0.5,0.7c0.1,0.2,0.2,0.5,0.3,0.8c0.1,0.3,0.1,0.6,0.1,0.8
		v2.4c0,0.2,0,0.3,0.1,0.3s0.1,0.1,0.2,0.2c0.1,0,0.2,0.1,0.3,0.1c0.1,0,0.2,0.1,0.3,0.1c0.1,0,0.2,0.1,0.2,0.2
		C100.3,30.9,100.4,31,100.4,31.2z M97.5,32.8c0,0.2,0,0.4-0.1,0.6c-0.1,0.2-0.2,0.4-0.3,0.5c-0.1,0.1-0.3,0.3-0.5,0.3
		c-0.2,0.1-0.4,0.1-0.6,0.1s-0.4,0-0.6-0.1S95,34,94.9,33.9s-0.3-0.3-0.3-0.5s-0.1-0.4-0.1-0.6c0-0.1,0-0.2,0.1-0.2
		c0.1-0.1,0.1-0.1,0.2-0.1h2.5c0.1,0,0.2,0,0.2,0.1C97.5,32.6,97.5,32.7,97.5,32.8z"/>
	<rect x="83.1" y="39.5" fill="#6264A7" width="25.9" height="21.2"/>
	<path fill="#FFFFFF" d="M100.2,46.6V55c0,0.1,0,0.2-0.1,0.3c0,0.1-0.1,0.2-0.1,0.2c-0.1,0.1-0.1,0.1-0.2,0.1s-0.2,0.1-0.3,0.1
		c-0.1,0-0.2,0-0.3-0.1S99,55.5,99,55.4l-1.5-1.7h-0.1c-0.3,0-0.6,0-0.9,0s-0.6,0-0.9,0s-0.6,0-1,0c-0.3,0-0.7,0-1-0.1
		c-0.3,0-0.7-0.1-1-0.1c-0.3-0.1-0.6-0.1-0.9-0.2c-0.2-0.1-0.4-0.2-0.6-0.4s-0.2-0.4-0.2-0.6v-5.7c0-0.1,0-0.3,0.1-0.4
		c0.1-0.1,0.1-0.2,0.2-0.3s0.2-0.2,0.3-0.2c0.1-0.1,0.2-0.1,0.4-0.1h7.4c0.1,0,0.3,0,0.4,0.1s0.2,0.1,0.3,0.2
		c0.1,0.1,0.2,0.2,0.2,0.3C100.2,46.3,100.2,46.5,100.2,46.6z M93.3,48.7h4.4v-0.6h-4.4V48.7z M93.3,50.6h2.9V50h-2.9V50.6z"/>
	<path fill="#F3F2F1" d="M463.7,243.6H211V17.9h255.9v222.5C466.9,242.2,465.5,243.6,463.7,243.6z"/>
	<rect x="228.6" y="51.5" fill="#E2E2F6" width="45" height="3.2"/>
	<rect x="284" y="51.5" fill="#E2E2F6" width="13.7" height="3.2"/>
	<rect x="371.6" y="51.5" fill="#E2E2F6" width="43.1" height="3.2"/>
	<rect x="347.2" y="51.5" fill="#E2E2F6" width="14.1" height="3.2"/>
	<rect x="308" y="51.5" fill="#E2E2F6" width="28.8" height="3.2"/>
	<rect x="228.6" y="57.9" fill="#E2E2F6" width="45" height="2.4"/>
	<path fill="#C2BADB" d="M444.6,207.1H288.4c-0.9,0-1.6-0.7-1.6-1.6V168c0-0.9,0.7-1.6,1.6-1.6h156.2c0.9,0,1.6,0.7,1.6,1.6v37.5
		C446.2,206.4,445.5,207.1,444.6,207.1z"/>
	<rect x="294.8" y="174.6" fill="#8B8CC4" width="117.5" height="3.2"/>
	<rect x="294.8" y="182.3" opacity="0.6" fill="#8B8CC4" enable-background="new    " width="140.1" height="3.2"/>
	<rect x="294.8" y="189.9" opacity="0.6" fill="#8B8CC4" enable-background="new    " width="126.3" height="3.2"/>
	<rect x="294.8" y="197.7" opacity="0.6" fill="#8B8CC4" enable-background="new    " width="30.1" height="3.2"/>
	<path fill="#C2BADB" d="M444.6,129.4H327.5c-0.9,0-1.6-0.7-1.6-1.6v-22.3c0-0.9,0.7-1.6,1.6-1.6h117.1c0.9,0,1.6,0.7,1.6,1.6v22.3
		C446.2,128.6,445.5,129.4,444.6,129.4z"/>
	<rect x="336.3" y="111" opacity="0.6" fill="#8B8CC4" enable-background="new    " width="99.3" height="3.2"/>
	<rect x="336.4" y="119.4" opacity="0.6" fill="#8B8CC4" enable-background="new    " width="71.2" height="3.2"/>
	<path fill="#FFFFFF" d="M408.3,158.9H254c-0.9,0-1.6-0.7-1.6-1.6v-19.7c0-0.9,0.7-1.6,1.6-1.6h154.3c0.9,0,1.6,0.7,1.6,1.6v19.7
		C409.9,158.2,409.2,158.9,408.3,158.9z"/>
	<rect x="262.5" y="149.8" fill="#D9DADD" width="37.1" height="3.2"/>
	<rect x="262.5" y="143.4" fill="#D9DADD" width="134.2" height="3.2"/>
	<path fill="#FFFFFF" d="M275.8,96.4H254c-0.9,0-1.6-0.7-1.6-1.6V73.6c0-0.9,0.7-1.6,1.6-1.6h21.7c0.9,0,1.6,0.7,1.6,1.6v21.2
		C277.4,95.6,276.7,96.4,275.8,96.4z"/>
	<rect x="251" y="30.7" fill="#E1DFDD" width="85.1" height="7.2"/>
	<circle fill="#C2BADB" cx="413" cy="34.3" r="6.4"/>
	<path fill="#FFFFFF" d="M413.9,33.4v2.1c0,0.1,0,0.1,0,0.2c0,0.1-0.1,0.1-0.1,0.1l-0.1,0.1c-0.1,0-0.1,0-0.2,0h-2.3
		c-0.1,0-0.2,0-0.2-0.1c-0.1,0-0.1-0.1-0.2-0.2s-0.1-0.2-0.1-0.3s0-0.2-0.1-0.3c0-0.1,0-0.2,0-0.3s0-0.2,0-0.2v-0.4
		c0-0.1,0-0.1,0-0.2c0-0.1,0-0.2,0-0.3s0-0.2,0.1-0.3s0.1-0.2,0.1-0.3s0.1-0.1,0.2-0.2c0.1,0,0.1-0.1,0.2-0.1h2.3c0.1,0,0.1,0,0.2,0
		s0.1,0.1,0.1,0.1l0.1,0.1C413.9,33.3,413.9,33.3,413.9,33.4z M415.4,33.4v2.1v0.1h-0.1h-0.1l-0.8-0.7c-0.1-0.1-0.1-0.1-0.1-0.2
		c0-0.1,0-0.2,0-0.2c0-0.1,0-0.2,0-0.2c0-0.1,0.1-0.1,0.1-0.2l0.8-0.7h0.1L415.4,33.4C415.4,33.3,415.4,33.4,415.4,33.4z"/>
	<circle fill="#C2BADB" cx="428.1" cy="34.3" r="6.4"/>
	<path fill="#FFFFFF" d="M429.9,35.8c0,0.1,0,0.1,0,0.2c0,0.1,0,0.1,0,0.1c0,0.1,0,0.1-0.1,0.2l-0.1,0.1l-0.1,0.1c0,0-0.1,0-0.2,0
		c0,0,0,0-0.1,0c0,0,0,0-0.1,0c-0.3-0.1-0.5-0.2-0.7-0.3s-0.4-0.3-0.6-0.4c-0.2-0.2-0.4-0.3-0.5-0.5c-0.2-0.2-0.3-0.4-0.4-0.6
		c-0.1-0.2-0.2-0.5-0.2-0.7c-0.1-0.2-0.1-0.5-0.1-0.8c0-0.1,0-0.2,0-0.3s0-0.1,0.1-0.2c0-0.1,0.1-0.1,0.1-0.1c0.1,0,0.2,0,0.3,0
		c0.1,0,0.1,0,0.2,0s0.1,0,0.1,0s0.1,0,0.1,0.1l0.1,0.1c0,0.1,0.1,0.1,0.1,0.2c0,0.1,0.1,0.1,0.1,0.2c0,0.1,0,0.1,0.1,0.2
		c0,0.1,0,0.1,0,0.2c0,0.1,0,0.2,0,0.2c0,0.1-0.1,0.1-0.1,0.2c0,0.1-0.1,0.1-0.1,0.2c0,0.1-0.1,0.1-0.2,0.2l0.7,1c0,0,0.1,0,0.1-0.1
		c0,0,0.1,0,0.1-0.1h0.1h0.1c0.1,0,0.1,0,0.2,0s0.1,0,0.2,0.1c0.1,0,0.1,0.1,0.2,0.1s0.1,0.1,0.2,0.1l0.1,0.1l0.1,0.1
		C429.7,35.7,429.7,35.8,429.9,35.8C429.9,35.7,429.9,35.8,429.9,35.8z"/>
	<circle fill="#D9DADD" cx="443.3" cy="34.3" r="6.4"/>
	<path fill="#16233A" d="M442.1,33.6c0,0.1,0,0.2,0,0.2c0,0.1-0.1,0.1-0.1,0.2c-0.1,0.1-0.1,0.1-0.2,0.1s-0.1,0-0.2,0s-0.2,0-0.2,0
		c-0.1,0-0.1-0.1-0.2-0.1c-0.1-0.1-0.1-0.1-0.1-0.2c0-0.1,0-0.1,0-0.2c0-0.1,0-0.2,0-0.2c0-0.1,0.1-0.1,0.1-0.2s0.1-0.1,0.2-0.1
		s0.1,0,0.2,0s0.2,0,0.2,0s0.1,0.1,0.2,0.1c0.1,0.1,0.1,0.1,0.1,0.2C442.1,33.4,442.1,33.5,442.1,33.6z M442.1,34.5V36h-0.3
		c-0.1,0-0.2,0-0.3,0c-0.1,0-0.2-0.1-0.3-0.1c-0.1,0-0.2-0.1-0.2-0.2c-0.1-0.1-0.1-0.2-0.1-0.3v-0.9H442.1L442.1,34.5z M444.2,34.2
		v1.5c0,0.1,0,0.2-0.1,0.3s-0.1,0.1-0.2,0.2c-0.1,0-0.2,0.1-0.3,0.1c-0.1,0-0.2,0-0.3,0c-0.1,0-0.2,0-0.3,0c-0.1,0-0.2-0.1-0.3-0.1
		c-0.1,0-0.2-0.1-0.2-0.2c-0.1-0.1-0.1-0.2-0.1-0.3v-1.5H444.2z M443.9,33.3c0,0.1,0,0.2,0,0.2c0,0.1-0.1,0.1-0.1,0.2
		c-0.1,0.1-0.1,0.1-0.2,0.1s-0.1,0-0.2,0s-0.2,0-0.2,0c-0.1,0-0.1-0.1-0.2-0.1c-0.1-0.1-0.1-0.1-0.1-0.2c0-0.1,0-0.1,0-0.2
		c0-0.1,0-0.2,0-0.2c0-0.1,0.1-0.1,0.1-0.2c0.1-0.1,0.1-0.1,0.2-0.1s0.1,0,0.2,0s0.2,0,0.2,0c0.1,0,0.1,0.1,0.2,0.1
		c0.1,0.1,0.1,0.1,0.1,0.2C443.9,33.1,443.9,33.2,443.9,33.3z M445.7,32.8L445.7,32.8l-0.1,0.1h-0.5v0.4v0.1H445h-0.1v-0.1V33h-0.4
		h-0.1v-0.1v-0.1h0.1h0.4v-0.4v-0.1h0.1h0.1v0.1v0.4h0.5L445.7,32.8C445.7,32.7,445.7,32.8,445.7,32.8z"/>
	<path fill="#FFFFFF" d="M444.6,231.9H254c-0.9,0-1.6-0.7-1.6-1.6v-9.6c0-0.9,0.7-1.6,1.6-1.6h190.7c0.9,0,1.6,0.7,1.6,1.6v9.6
		C446.2,231.2,445.5,231.9,444.6,231.9z"/>
	<g>
		
			<linearGradient id="SVGID_3_" gradientUnits="userSpaceOnUse" x1="518.7635" y1="333.0994" x2="462.7814" y2="357.8308" gradientTransform="matrix(1 0 0 1 0 -128.2279)">
			<stop  offset="0" style="stop-color:#C8C6C4"/>
			<stop  offset="1" style="stop-color:#E1DFDD"/>
		</linearGradient>
		<path fill="url(#SVGID_3_)" d="M507.4,183.1L453,235.9l10.7,13.6c0,0,18.5,2.1,26.9-6.3l30.8-31.9
			C521.4,211.3,515.3,175.4,507.4,183.1z"/>
		<path fill="#7C7EBB" d="M482.1,164.3c7.1,14.1,11.2,16.7,21.5,19.4c10.4,2.8,20.1-11,20.1-11l4.2,3.6c0,0-9.4,36.2-33.7,32.8
			c-24.6-3.5-42.1-20.1-40.3-38.6C455.5,154.6,474.9,150,482.1,164.3z"/>
		
			<linearGradient id="SVGID_4_" gradientUnits="userSpaceOnUse" x1="525.9475" y1="365.2339" x2="552.1537" y2="324.8452" gradientTransform="matrix(1 0 0 1 0 -128.2279)">
			<stop  offset="0" style="stop-color:#C8C6C4"/>
			<stop  offset="1" style="stop-color:#E1DFDD"/>
		</linearGradient>
		<path fill="url(#SVGID_4_)" d="M569.5,247.3l-6.5-3.4c-1.1-0.6-2.1-1.6-2.8-3.3l-25.2-53c-4.7-9.9-17.8-12.3-25.7-4.6l14,28.3
			l29.1,34.6c0.1,2,1.7,3.5,3.7,3.5l12.9,0.1C570,249.5,570.5,248,569.5,247.3z"/>
		
			<radialGradient id="SVGID_5_" cx="458.0257" cy="335.1384" r="57.1666" gradientTransform="matrix(1.0339 0 8.580000e-02 1 -25.2651 -128.2279)" gradientUnits="userSpaceOnUse">
			<stop  offset="0" style="stop-color:#6264A7"/>
			<stop  offset="0.7462" style="stop-color:#8B8CC7"/>
		</radialGradient>
		<path fill="url(#SVGID_5_)" d="M460.1,231.8h-36.3l-4.1-48c-2.2-19.9,9.8-38.6,25.9-38.6h7.1c16.1,0,30.3,12.6,31.6,28.2l2.6,30.1
			C488.3,219.2,476.3,231.8,460.1,231.8z"/>
		<path fill="#E0BB95" d="M463.8,147.3c-3.5-1.3-7.2-2.1-11.1-2.1h-7.1c-1.6,0-3.2,0.3-4.7,0.6c1,4.5,6.8,7.9,13,7.9
			C459.2,153.7,463.3,151,463.8,147.3z"/>
		<path fill="#E0BB95" d="M528,176.3c-0.3-0.1-8.7-3.1-8.6-3.6l5.2-12.5c0.2-0.4,0.6-0.7,1-0.6h6c1.6,0.4,2.7,2.5,1.3,6.2L528,176.3
			z"/>
		<path fill="#605D5A" d="M525.6,176.5h-26c-1.2,0-2.1-0.9-2-2l3.6-31.5c0.1-1.1,1.2-2,2.4-2h26c1.2,0,2.1,0.9,2,2l-3.6,31.5
			C527.9,175.7,526.8,176.5,525.6,176.5z"/>
		<path fill="#E0BB95" d="M497.5,176.3c0,0,9.2-3.7,10-7.6c1-1.7,1.1-1.9,1.3-2.7c0.4-1.7-1-1.6-1-1.6s1.3-1.3,0.6-2.3
			c-0.7-1-9.9,4.8-9.9,4.8l0.5-4.2c0,0-5.7,5.9-5.7,10C493.3,174,497.5,176.3,497.5,176.3z"/>
		<path fill="#8B8CC4" d="M449.5,163.9c5.3,15.1,7.9,18.3,18.3,20.8s25.5-11.9,25.5-11.9l4.3,3.5c0,0-11.2,33.7-35.7,33.4
			c-22.4-0.3-41.9-21.2-40.5-39.8C422.4,154,444.2,148.7,449.5,163.9z"/>
		
			<radialGradient id="SVGID_6_" cx="474.2443" cy="316.7282" r="11.3496" gradientTransform="matrix(0.9218 4.270000e-02 -3.620000e-02 0.7812 33.183 -127.1274)" gradientUnits="userSpaceOnUse">
			<stop  offset="0" style="stop-color:#9B643D"/>
			<stop  offset="0.2729" style="stop-color:#B6865F"/>
			<stop  offset="0.5661" style="stop-color:#CDA37C"/>
			<stop  offset="0.8188" style="stop-color:#DBB58F"/>
			<stop  offset="1" style="stop-color:#E0BB95"/>
		</radialGradient>
		<path fill="url(#SVGID_6_)" d="M456.9,151.6l-7.9-0.4c-2.9-0.1-5.1-2.6-5-5.5l0.7-14.8l18,0.8l-0.7,15.2
			C461.8,149.6,459.5,151.7,456.9,151.6z"/>
		<g>
			
				<radialGradient id="SVGID_7_" cx="442.5325" cy="285.43" r="23.5859" gradientTransform="matrix(0.9967 -8.100000e-02 8.100000e-02 0.9967 -22.2515 -93.6515)" gradientUnits="userSpaceOnUse">
				<stop  offset="0" style="stop-color:#915A37"/>
				<stop  offset="1" style="stop-color:#DCB38B"/>
			</radialGradient>
			<path display="none" fill="url(#SVGID_7_)" d="M445,131.5c0,0,0.3,13.6-10.2,26.9c27.9-1.4,31.4-12.9,31.4-12.9l-8.4-6.9
				L445,131.5z"/>
			
				<radialGradient id="SVGID_8_" cx="6393.8022" cy="-1515.8954" r="19.3507" gradientTransform="matrix(-0.9916 0.1293 -0.1581 -1.2128 6558.1626 -2539.4192)" gradientUnits="userSpaceOnUse">
				<stop  offset="0" style="stop-color:#915A37"/>
				<stop  offset="1" style="stop-color:#DCB38B"/>
			</radialGradient>
			<path display="none" fill="url(#SVGID_8_)" d="M446,123.5l14.6-1.9l2.5,21.5c0.2,1.3,2.5,2.2,3.2,2.5c-3.3,5.5-16,9.8-25.8,7.3
				c0.8-0.2,2.8-3.7,2.6-5.4L446,123.5z"/>
			<path fill="#E1DFDD" d="M458,129.1l-16.4-1l0.5-9.4c0.2-3,2.8-5.3,5.8-5.1l10.9,0.6c4.1,0.2,7.2,3.8,7,7.9l0,0
				C465.6,126.2,462.1,129.3,458,129.1z"/>
			<circle fill="#E0BB95" cx="445.2" cy="128.7" r="4.3"/>
			<path fill="#E0BB95" d="M458.4,145.8L458.4,145.8c-7.9-0.5-14-7.3-13.5-15.2l0.5-8.3c0.2-3.2,3-5.7,6.2-5.5l19.3,1.1l-1,17.6
				C469.6,141.6,464.4,146.2,458.4,145.8z"/>
			<path fill="#E1DFDD" d="M465.8,119.4c-3.5-1.1-6.4-1.7-10-2c-5.6-0.6-10.3,0.1-10.3,0.1l0.2-1.7c0.4-3.8,3-7.2,7.6-6.2
				c7.1,1.5,5.7-0.7,8.8-0.7c2.9,0,3.4,2.9,4.6,3.1c3,0.3,2.7-3.6,7-2.3C477.3,110.7,478.7,123.5,465.8,119.4z"/>
			
				<ellipse transform="matrix(5.800192e-02 -0.9983 0.9983 5.800192e-02 302.2307 575.0844)" fill="#594539" cx="455.8" cy="127.4" rx="1.8" ry="1.1"/>
			<g>
				
					<radialGradient id="SVGID_9_" cx="7214.2124" cy="1881.1238" r="8.5885" gradientTransform="matrix(-0.971 -4.950000e-02 -3.660000e-02 0.7182 7532.3281 -861.8526)" gradientUnits="userSpaceOnUse">
					<stop  offset="0" style="stop-color:#BF8F68"/>
					<stop  offset="1" style="stop-color:#BF8F68;stop-opacity:0"/>
				</radialGradient>
				<path fill="url(#SVGID_9_)" d="M469.5,144.8l-10.2-0.6l0.6-8.9c0-0.5,0.3-0.9,0.7-1.1l2.1-1.2c0.5-0.3,0.6-0.8,0.4-1.3l-1.6-2.8
					c-0.4-0.7-0.6-1.4-0.5-2.2l0.6-9.6l10.2,0.6L469.5,144.8z"/>
			</g>
			
				<ellipse transform="matrix(5.800192e-02 -0.9983 0.9983 5.800192e-02 310.5456 584.5227)" fill="#594539" cx="465" cy="127.7" rx="1.8" ry="1.1"/>
			<path fill="#E1DFDD" d="M445,115.7c0,0,6.8-1.1,6.7,4c0,3-2.3,4.4-4.2,4.7c-1.7,0.3-3,0.2-3,0.2L445,115.7z"/>
			<g>
				<path fill="#BF8F68" d="M456,135.7c1,0.9,1.6,1.2,2.3,1.5c0.7,0.2,1.5,0.4,2.7,0.4l0,0c0.2,0,0.4,0.2,0.4,0.4c0,0.1,0,0.1,0,0.2
					c-0.7,1.3-2.4,1.8-3.9,1.3c-0.7-0.3-1.4-0.8-1.8-1.4c-0.4-0.6-0.5-1.4-0.4-2.1c0-0.2,0.2-0.3,0.4-0.3
					C455.8,135.6,455.9,135.6,456,135.7L456,135.7z"/>
			</g>
		</g>
		<path fill="#E1DFDD" d="M464.9,249.7h-18.3c-11.7,0-21.9-9.2-22.9-20.5l-1.2-13.4H462L464.9,249.7z"/>
		<path fill="#E1DFDD" d="M553,247.5l-6.5-3.4c-1.1-0.6-2.1-1.6-2.8-3.3l-25.2-53c-4.7-9.9-17.8-12.3-25.7-4.6L433,230.8l12.6,12.7
			c8.4,8.4,21.9,8.4,30.3,0l30.8-31.9l29.1,34.6c0.1,2,1.7,3.5,3.7,3.5l12.9,0.1C553.5,249.7,554,248.2,553,247.5z"/>
		<path fill="#E0BB95" d="M531.1,162l-3.1-0.5c-0.7-0.1-1.1-0.8-1-1.4l0,0c0.1-0.7,0.8-1.1,1.4-1l3.1,0.5c0.7,0.1,1.1,0.8,1,1.4l0,0
			C532.4,161.7,531.8,162.2,531.1,162z"/>
		<path fill="#E0BB95" d="M530.2,165.4l-3.1-0.5c-0.7-0.1-1.1-0.8-1-1.4l0,0c0.1-0.7,0.8-1.1,1.4-1l3.1,0.5c0.7,0.1,1.1,0.8,1,1.4
			l0,0C531.5,165.1,530.9,165.5,530.2,165.4z"/>
		<path fill="#E0BB95" d="M530.2,167.8l-3.1-0.5c-0.7-0.1-1.1-0.8-1-1.4l0,0c0.1-0.7,0.8-1.1,1.4-1l3.1,0.5c0.7,0.1,1.1,0.8,1,1.4
			l0,0C531.5,167.5,530.9,167.9,530.2,167.8z"/>
		<path fill="#E0BB95" d="M529.7,170.1l-1.6-0.3c-0.7-0.1-1.1-0.8-1-1.4l0,0c0.1-0.7,0.8-1.1,1.4-1l1.6,0.3c0.7,0.1,1.1,0.8,1,1.4
			l0,0C531,169.8,530.3,170.2,529.7,170.1z"/>
		<path fill="#E0BB95" d="M443.2,144.4c-0.4,0.7-2.3,1.3-2.3,1.3l4.6,1l-1.4-5.3C444.1,141.4,444,143.1,443.2,144.4z"/>
	</g>
	<path fill="#CDD4E0" stroke="#CDD4E0" stroke-width="0.2576" stroke-miterlimit="10" d="M82.3,82.2"/>
	<path fill="#CDD4E0" stroke="#CDD4E0" stroke-width="0.2576" stroke-miterlimit="10" d="M93.2,77.6"/>
	<path fill="#CDD4E0" stroke="#CDD4E0" stroke-width="0.2576" stroke-miterlimit="10" d="M92.4,80.8"/>
	<path fill="#CDD4E0" stroke="#CDD4E0" stroke-width="0.2576" stroke-miterlimit="10" d="M79.9,85.7"/>
	<rect x="143.1" y="24.8" fill="#6264A7" width="21.7" height="4"/>
	
		<ellipse transform="matrix(0.1602 -0.9871 0.9871 0.1602 139.3549 332.1921)" fill="#F7B548" cx="264.9" cy="84.2" rx="9.8" ry="9.8"/>
	<circle fill="#2B2B2A" cx="261.3" cy="81.6" r="1.5"/>
	<circle fill="#2B2B2A" cx="268.7" cy="81.6" r="1.5"/>
	<path fill="#E3646A" d="M258.3,86c0.8,2.9,3.5,5.1,6.6,5.1s5.9-2.2,6.6-5.1H258.3z"/>
	<path fill="#F3F3F3" d="M271.1,87.2c0.2-0.4,0.3-0.8,0.4-1.2h-13.3c0.1,0.4,0.3,0.8,0.4,1.2H271.1z"/>
	<path fill="#33312D" d="M260,85.2h-0.6c-2.3,0-4.2-1.9-4.2-4.2v-1.4h9V81C264.2,83.3,262.3,85.2,260,85.2z"/>
	<path fill="#33312D" d="M270.5,85.2h-0.6c-2.3,0-4.2-1.9-4.2-4.2v-1.4h9V81C274.7,83.3,272.8,85.2,270.5,85.2z"/>
	<path fill="#797673" d="M273.8,83.5l-3.9-4h-2.3l4.9,5C273,84.3,273.4,84,273.8,83.5z"/>
	<circle fill="#B4E0F5" cx="453.6" cy="9" r="6"/>
	<path fill="#3A312E" d="M448.9,7.4c0,1.2-0.2,2.9-0.5,4.7c1,1.8,2.9,2.9,5.1,2.9c2.3,0,4.4-1.4,5.3-3.3c-0.3-1.9-0.5-3.5-0.6-4.7
		C458.2,6.3,449.1,6.8,448.9,7.4z"/>
	
		<ellipse transform="matrix(8.199449e-03 -1 1 8.199449e-03 442.4331 461.0529)" fill="#3A312E" cx="453.6" cy="7.5" rx="5.2" ry="4.7"/>
	<path fill="#8B8CC7" d="M449.8,13.7c1,0.8,2.3,1.4,3.8,1.4c1.4,0,2.7-0.5,3.7-1.3c-0.9-0.4-1.8-0.8-2.8-1c0.1,0.2-3.5,0.7-3.5,0.7
		C450.6,13.4,450.2,13.5,449.8,13.7z"/>
	<path fill="#BF8F68" d="M455.8,13.1c-1.1-0.3-1.2-1.1-1.2-1.3l0,0V9.6h-2.1v2.9c0,0.3-0.2,0.6-0.6,0.7l-1.2,0.3
		c0,0,2.4,0.8,5.6-0.1C456.1,13.3,455.9,13.2,455.8,13.1z"/>
	<ellipse fill="#F7C6C8" cx="450.5" cy="9.8" rx="0.6" ry="0.6"/>
	
		<ellipse transform="matrix(8.199449e-03 -1 1 8.199449e-03 441.9642 460.6646)" fill="#BF8F68" cx="453.2" cy="7.5" rx="3.8" ry="3.1"/>
	
		<ellipse transform="matrix(2.320142e-02 -0.9997 0.9997 2.320142e-02 436.0163 461.7374)" fill="#3A312E" cx="454.3" cy="7.7" rx="0.5" ry="0.3"/>
	
		<radialGradient id="SVGID_10_" cx="1939.9861" cy="-666.4062" r="1.5138" gradientTransform="matrix(-0.9978 6.700000e-02 -7.070000e-02 -1.0519 2340.9409 -822.531)" gradientUnits="userSpaceOnUse">
		<stop  offset="3.000000e-04" style="stop-color:#9B643D"/>
		<stop  offset="0.8822" style="stop-color:#BA8A63;stop-opacity:0.1178"/>
		<stop  offset="1" style="stop-color:#BF8F68;stop-opacity:0"/>
	</radialGradient>
	<path fill="url(#SVGID_10_)" d="M453.1,5.6L453,6.9c-0.1,0.6-0.4,1.1-0.7,1.3c-0.1,0.1-0.2,0.5,0,0.7c0.1,0.1,0.5,0.4,0.5,0.6v1.2
		h-2.4l0.2-5.1H453.1z"/>
	<path fill="#9B643D" d="M452.6,9.7c0.2,0,1-0.1,1.2-0.2h0.1l0.1,0.1c0,0.4-0.4,0.6-0.6,0.7c-0.3,0-0.7,0-0.8-0.3
		C452.5,9.8,452.5,9.8,452.6,9.7L452.6,9.7z"/>
	<path fill="#3A312E" d="M450.1,4.6c0,0,0.7,0.3,1.5-0.1c0.7-0.4,1.3,0.3,1.6,0.8c0.7,1.1,1.9,2,3.1,1.9c0.9-0.1,1.1-2.9-1.4-3.8
		C452.4,2.3,450.1,4.6,450.1,4.6z"/>
	<path fill="#BF8F68" d="M455.2,8.9h1.2c0.5,0,0.9-0.4,0.9-0.9V7.9c0-0.5-0.4-0.9-0.9-0.9h-1.2V8.9z"/>
	<ellipse fill="#F7C6C8" cx="456.5" cy="9.6" rx="0.6" ry="0.6"/>
	
		<ellipse transform="matrix(1 -6.699699e-03 6.699699e-03 1 -4.078241e-02 3.0265)" fill="#3A312E" cx="451.7" cy="7.6" rx="0.3" ry="0.5"/>
	<circle fill="#B3AFAB" cx="126.2" cy="209" r="8.8"/>
	
		<radialGradient id="SVGID_11_" cx="126.6541" cy="-878.6704" r="3.4004" gradientTransform="matrix(1 0 0 -1 0 -666)" gradientUnits="userSpaceOnUse">
		<stop  offset="0" style="stop-color:#9A6541"/>
		<stop  offset="1" style="stop-color:#BE906B"/>
	</radialGradient>
	<path fill="url(#SVGID_11_)" d="M123.9,217.5c0.7,0.2,1.5,0.3,2.3,0.3c0.9,0,1.8-0.2,2.6-0.4v-3.7h-4.9V217.5z"/>
	<path fill="#594539" d="M128.6,202.7c-1.6,1.1-2.5,2.3-2.5,2.3s2.6,0.1,4.3,3.1c0.3,0.5,0.3,1.4,0.1,2.8c-0.1,1.4-0.1,2.4,0.1,2.7
		c0.2,0.6,1,2,3.3,2c2.7,0.1,3.7-1.8,3.7-1.8c-1.7,0.4-1.7-1.8-1.7-1.8c0.3-5.2,0.3-6.7,0.1-7.4c-0.5-2.4-2.3-2.9-3-3
		C131.6,201.4,130.2,201.7,128.6,202.7z"/>
	<path fill="#594539" d="M131.2,203.2c-1.3-1.4-3-2.2-4.9-2.2s-3.6,0.7-5,2.1c-1.4,1.4-2.1,3.1-2.1,5.1s0.6,3.8,2,5.2
		c1.3,1.4,3,2.2,4.9,2.2s3.6-0.7,5-2.1c1.4-1.4,2.1-3.1,2.1-5.1C133.2,206.3,132.5,204.6,131.2,203.2z"/>
	<ellipse fill="#BE906B" cx="126.4" cy="209.5" rx="5" ry="6.8"/>
	
		<radialGradient id="SVGID_12_" cx="30.7412" cy="-1652.4969" r="2.1029" gradientTransform="matrix(1 0 0 -0.9918 95.35 -1427.6471)" gradientUnits="userSpaceOnUse">
		<stop  offset="0" style="stop-color:#956D4E;stop-opacity:0.8784"/>
		<stop  offset="0.9373" style="stop-color:#A7754B;stop-opacity:0"/>
	</radialGradient>
	<path fill="url(#SVGID_12_)" d="M126.3,207.8H123v6h3.3V207.8z"/>
	<path fill="#BE906B" d="M125.9,212.1c0.3,0.1,0.4,0.2,0.4,0.2s0.8-1.7,0-3l-0.1,0.5c-0.1,0.4-0.9,0.9-0.9,1.4
		C125.2,211.4,125.3,211.9,125.9,212.1z"/>
	<path fill="#9A6541" d="M127.8,213.3c-0.1,0.5-0.6,0.8-1.1,1c-0.5,0-1-0.1-1.4-0.4c-0.1-0.1-0.1-0.3,0-0.4c0.1-0.1,0.2-0.1,0.2-0.1
		l0,0c0.4,0,0.7,0.1,0.9,0c0.3,0,0.5-0.2,0.8-0.4h0.1c0.1-0.1,0.3-0.1,0.4,0.1C127.9,213.2,127.9,213.2,127.8,213.3z"/>
	<ellipse fill="#3A312E" cx="124" cy="209.9" rx="0.5" ry="0.8"/>
	<ellipse fill="#3A312E" cx="128.5" cy="209.9" rx="0.5" ry="0.8"/>
	<circle fill="#BE906B" cx="121.5" cy="210.6" r="1.4"/>
	<circle fill="#BE906B" cx="131.2" cy="210.6" r="1.4"/>
	<path fill="#594539" d="M131.6,204.2c-0.1,0-0.3,1.6-0.9,2c-1.3-2-3-1.4-5.6,1c-2.1,2.1-6,2.1-7.5-2c0.5,0.4,1.1,0.7,2.4-1.2
		c1.7-2.3,3.8-3.3,6.4-3.1C128.9,201.2,130.3,202.3,131.6,204.2z"/>
	<circle fill="#E1DFDD" cx="126.1" cy="84.2" r="8.8"/>
	
		<radialGradient id="SVGID_13_" cx="126.3024" cy="-755.2331" r="4.5644" gradientTransform="matrix(1 0 0 -1 0 -666)" gradientUnits="userSpaceOnUse">
		<stop  offset="0.173" style="stop-color:#724937"/>
		<stop  offset="0.7031" style="stop-color:#9B643D"/>
	</radialGradient>
	<path fill="url(#SVGID_13_)" d="M129,85.4h-5.3v7c0,0.1-0.1,0.2-0.1,0.2c0.8,0.2,1.7,0.4,2.6,0.4c1,0,2-0.2,2.9-0.5
		c0-0.1-0.1-0.1-0.1-0.2L129,85.4z"/>
	<circle fill="#594539" cx="121.3" cy="81" r="1.5"/>
	<circle fill="#594539" cx="124.7" cy="74.7" r="1.8"/>
	<circle fill="#594539" cx="122.4" cy="75.9" r="1.8"/>
	<circle fill="#594539" cx="121.2" cy="78.4" r="1.8"/>
	<circle fill="#594539" cx="131.1" cy="81" r="1.5"/>
	<circle fill="#594539" cx="127.6" cy="74.8" r="1.8"/>
	<circle fill="#594539" cx="130.1" cy="76" r="1.8"/>
	<circle fill="#594539" cx="131.1" cy="78.7" r="1.8"/>
	<path fill="#594539" d="M129.3,85.2h-6.2c-1.3,0-2.3-1-2.3-2.3V80c0-3,2.4-5.4,5.4-5.4l0,0c3,0,5.4,2.4,5.4,5.4v2.8
		C131.6,84.2,130.6,85.2,129.3,85.2z"/>
	<path fill="#9B643D" d="M119.9,84.3c0,1,0.8,1.7,1.7,1.7c0.1,0,0.9,0,1,0c0.9-0.1,0.8-0.8,0.8-1.7c0-0.9,0.1-1.6-0.7-1.7
		c-0.1,0-0.9,0-1,0C120.7,82.6,119.9,83.3,119.9,84.3z"/>
	<path fill="#9B643D" d="M126.2,90.5L126.2,90.5c-2.5,0-4.6-2.1-4.6-4.6v-4.8c0-2.5,2.1-4.6,4.6-4.6l0,0c2.5,0,4.6,2.1,4.6,4.6v4.8
		C130.8,88.5,128.7,90.5,126.2,90.5z"/>
	
		<ellipse transform="matrix(5.499834e-03 -1 1 5.499834e-03 44.2869 210.9229)" fill="#3A312E" cx="128.2" cy="83.2" rx="0.7" ry="0.4"/>
	
		<radialGradient id="SVGID_14_" cx="225.962" cy="-899.3923" r="3.8786" gradientTransform="matrix(0.9721 1.230000e-02 1.110000e-02 -0.8762 -83.3324 -705.9417)" gradientUnits="userSpaceOnUse">
		<stop  offset="0.173" style="stop-color:#724937"/>
		<stop  offset="0.7031" style="stop-color:#9B643D"/>
	</radialGradient>
	<path fill="url(#SVGID_14_)" d="M122.7,88.8l3.3-0.1l0.1-2.5c0-0.2-0.1-0.4-0.3-0.5l-0.8-0.5c-0.2-0.1-0.2-0.4-0.1-0.5l0.7-1.1
		c0.2-0.3,0.3-0.6,0.3-0.9v-3.9l-3.5,0.1L122.7,88.8z"/>
	
		<ellipse transform="matrix(5.499834e-03 -1 1 5.499834e-03 40.2529 206.8372)" fill="#3A312E" cx="124.1" cy="83.2" rx="0.7" ry="0.4"/>
	<path fill="#9B643D" d="M132.6,84.3c0,1-0.8,1.7-1.7,1.7c-0.1,0-0.9,0-1,0c-0.9-0.1-0.8-0.8-0.8-1.7c0-0.9-0.1-1.6,0.7-1.7
		c0.1,0,0.9,0,1,0C131.8,82.6,132.5,83.3,132.6,84.3z"/>
	<path fill="#855035" d="M127.8,87.2c0,0.3-0.1,0.6-0.3,0.8c-0.2,0.2-0.5,0.4-0.7,0.5c-0.3,0.1-0.6,0.1-0.9,0s-0.5-0.3-0.7-0.5
		c-0.1-0.1,0-0.2,0.1-0.3h0.1l0,0c0.2,0,0.4,0,0.6,0s0.3,0,0.5-0.1c0.3-0.1,0.6-0.2,1-0.5l0,0C127.6,87,127.7,87.1,127.8,87.2
		C127.8,87.1,127.8,87.1,127.8,87.2z"/>
	<path fill="#594539" d="M129.3,75.6h-6.2l-1.9,2.9l0.4,4l0.5-2.9c0.2-0.9,1-1.6,2-1.6h4.3c1,0,1.8,0.7,2,1.6l0.5,2.9l0.4-4
		L129.3,75.6z"/>
	<circle fill="#594539" cx="128.4" cy="77.3" r="1.8"/>
	<circle fill="#8B8CC4" cx="126.2" cy="114.8" r="8.8"/>
	
		<radialGradient id="SVGID_15_" cx="126.1755" cy="-785.0636" r="3.0307" gradientTransform="matrix(1 0 0 -1 0 -666)" gradientUnits="userSpaceOnUse">
		<stop  offset="0" style="stop-color:#9B643D"/>
		<stop  offset="0.4506" style="stop-color:#B98963"/>
		<stop  offset="0.9902" style="stop-color:#E0BB95"/>
	</radialGradient>
	<path fill="url(#SVGID_15_)" d="M124.4,118.1v4c0,0.6-0.1,0.9-0.3,1.2c0.7,0.2,1.4,0.3,2.1,0.3c0.8,0,1.6-0.2,2.4-0.4
		c-0.2-0.2-0.3-0.5-0.2-1v-4.1H124.4L124.4,118.1z"/>
	<path fill="#FADCBD" d="M132.5,112.2c-0.1,3.8-2.9,6.8-6.4,6.7c-3.5-0.1-6.3-3.2-6.2-6.9s1.5-6.7,6.4-6.7
		C131.1,105.3,132.6,108.4,132.5,112.2z"/>
	<path fill="#E0BB95" d="M123.6,117h-2.1c-0.7,0-1.3-0.6-1.3-1.3v-0.4c0-0.7,0.6-1.3,1.3-1.3h2.1V117L123.6,117z"/>
	<path fill="#E0BB95" d="M128.8,117h2.1c0.7,0,1.3-0.6,1.3-1.3v-0.4c0-0.7-0.6-1.3-1.3-1.3h-2.1V117z"/>
	<path fill="#EE8F94" d="M130.6,120c-0.9,0-1.7-0.7-1.7-1.7c0-0.9,0.7-1.7,1.7-1.7s1.7,0.7,1.7,1.7C132.2,119.3,131.5,120,130.6,120
		z M130.6,117.4c-0.6,0-1,0.4-1,1s0.4,1,1,1c0.5,0,1-0.4,1-1S131.1,117.4,130.6,117.4z"/>
	<path fill="#EE8F94" d="M121.7,120c-0.9,0-1.7-0.7-1.7-1.7c0-0.9,0.7-1.7,1.7-1.7c0.9,0,1.7,0.7,1.7,1.7
		C123.4,119.3,122.6,120,121.7,120z M121.7,117.4c-0.5,0-1,0.4-1,1s0.4,1,1,1s1-0.4,1-1S122.3,117.4,121.7,117.4z"/>
	<path fill="#FADCBD" d="M130.5,107.6c-0.6-3.7-5-4.4-7.7-3.3c-2.4,1-3.6,2.9-4.8,1.1c0,0-1.9,1.6-1.3,3.8c0.5,2.2,3,3.8,4.7,3
		c1.2-0.5,2.3-2.5,4.5-3.7C127.7,107.5,130.5,107.6,130.5,107.6z"/>
	<path fill="#E0BB95" d="M131.1,114c0,3.7-2.2,6.7-4.9,6.7c-2.7,0-4.9-3-4.9-6.7s2.2-6.4,4.9-6.4C128.9,107.6,131.1,110.3,131.1,114
		z"/>
	<path fill="#3A312E" d="M128.2,113.7c0.2,0,0.4,0.3,0.4,0.7c0,0.4-0.2,0.7-0.4,0.7c-0.2,0-0.4-0.3-0.4-0.7S128,113.7,128.2,113.7z"
		/>
	
		<radialGradient id="SVGID_16_" cx="127.8883" cy="-781.807" r="3.2023" gradientTransform="matrix(1 0 0 -1 0 -666)" gradientUnits="userSpaceOnUse">
		<stop  offset="3.000000e-04" style="stop-color:#9B643D"/>
		<stop  offset="0.8822" style="stop-color:#BA8A63;stop-opacity:0.1178"/>
		<stop  offset="1" style="stop-color:#BF8F68;stop-opacity:0"/>
	</radialGradient>
	<path fill="url(#SVGID_16_)" d="M126.5,110.9l-0.1,2c0,1-0.6,1.9-0.9,2.4c-0.2,0.2-0.1,0.6,0.1,0.8c0.4,0.3,0.8,0.9,0.9,1.4
		l-0.1,1.2l-3,0.3l-0.2-8L126.5,110.9z"/>
	<path fill="#BF8F68" d="M125.5,118.1c0.8,0,1.2-0.1,1.9-0.4l0,0c0.1,0,0.2,0,0.2,0.1v0.1c-0.1,0.5-0.5,0.8-1,1
		c-0.5,0.1-1-0.1-1.3-0.5C125.3,118.2,125.3,118.1,125.5,118.1C125.4,118.1,125.5,118.1,125.5,118.1z"/>
	
		<ellipse transform="matrix(0.9999 -1.489968e-02 1.489968e-02 0.9999 -1.6908 1.8618)" fill="#3A312E" cx="124.1" cy="114.4" rx="0.4" ry="0.7"/>
	<path fill="#FADCBD" d="M131.5,108.8c0,0-2.6-1.5-5.4-1.5c-2.8,0-5.4,1.5-5.4,1.5l-0.6,5.3l1.1,0.1l0.9-3.9
		c0.1-0.3,0.4-0.5,0.7-0.5h6.6c0.3,0,0.6,0.2,0.7,0.5l0.9,3.9l1.1-0.1L131.5,108.8z"/>
	<circle fill="#E1DFDD" cx="126.3" cy="176.8" r="8.8"/>
	
		<radialGradient id="SVGID_17_" cx="5.0599" cy="-933.4556" r="2.6088" gradientTransform="matrix(0.9549 0 0 -0.8982 118.9216 -661.6935)" gradientUnits="userSpaceOnUse">
		<stop  offset="0" style="stop-color:#9B643D"/>
		<stop  offset="1" style="stop-color:#BF8F68;stop-opacity:0"/>
	</radialGradient>
	<path fill="url(#SVGID_17_)" d="M125.9,177.7c0-0.7-1.2-0.6-0.6-1.7c0.2-0.3,0.4-1,0.6-1.7h0.9l-0.1,3.4H125.9z"/>
	<path fill="#8B8CC4" d="M126.3,185.6c2.2,0,4.2-0.8,5.7-2.2c-1.3-1-1.6-2.8-0.7-4.2l0.7-1.2l-5.8,0.3l-5.8-0.3l0.7,1.2
		c0.8,1.4,0.5,3.1-0.7,4.2C122,184.8,124,185.6,126.3,185.6z"/>
	<ellipse fill="#8B8CC7" cx="126.2" cy="174.3" rx="6.7" ry="7.3"/>
	
		<radialGradient id="SVGID_18_" cx="-644.7443" cy="-852.6196" r="9.7935" gradientTransform="matrix(0.8475 0 0 -1 668.0563 -666)" gradientUnits="userSpaceOnUse">
		<stop  offset="0" style="stop-color:#4B4C75"/>
		<stop  offset="1" style="stop-color:#6D6FAB;stop-opacity:0"/>
	</radialGradient>
	<path fill="url(#SVGID_18_)" d="M121.2,179.1c1.4,1.9,2.5,4.4,5.1,3.7c1.4-0.4,2.1-1.5,4.4-0.6c0,0-0.6-0.9-0.3-2.7
		c0.2-1.3,0.3-3.3,0.3-3.3S118.6,175.6,121.2,179.1z"/>
	<ellipse fill="#E0BB95" cx="126.2" cy="175.6" rx="4.7" ry="5.2"/>
	<path fill="#6F50A1" d="M122.7,178.2L122.7,178.2L122.7,178.2"/>
	
		<radialGradient id="SVGID_19_" cx="71.9239" cy="737.1572" r="2.1218" gradientTransform="matrix(-0.9013 6.120000e-02 3.250000e-02 0.8392 167.0846 -446.6105)" gradientUnits="userSpaceOnUse">
		<stop  offset="0" style="stop-color:#9B643D"/>
		<stop  offset="1" style="stop-color:#BF8F68;stop-opacity:0"/>
	</radialGradient>
	<path fill="url(#SVGID_19_)" d="M126.3,177.6c0-0.2-0.1-0.4-0.3-0.5c-0.3-0.2-0.8-0.5-0.3-1.2c0.2-0.3,0.5-0.5,0.4-2l-2.7-0.1
		l-0.1,4.5h2.9L126.3,177.6z"/>
	<path fill="#484643" d="M128.5,175c0,0.4-0.2,0.7-0.4,0.7s-0.4-0.3-0.4-0.7s0.2-0.7,0.4-0.7C128.3,174.3,128.5,174.7,128.5,175"/>
	<path fill="#484643" d="M124.8,175c0,0.4-0.2,0.7-0.4,0.7c-0.2,0-0.4-0.3-0.4-0.7s0.2-0.7,0.4-0.7
		C124.6,174.3,124.8,174.7,124.8,175"/>
	<path fill="#BF8F68" d="M127.5,178.2c-0.1,0.5-0.5,0.6-0.9,0.8c-0.4,0.1-0.8,0.1-1.1-0.3c-0.1-0.1-0.1-0.2,0-0.3l0.1-0.1h0.1
		c0.2,0,0.4,0,0.7-0.1c0.2,0,0.4-0.1,0.6-0.2l0.1-0.1c0.1-0.1,0.3,0,0.3,0.1C127.5,178.1,127.5,178.1,127.5,178.2z"/>
	<path fill="#8B8CC4" d="M125.7,167.8c0,0-1.5,1.3,3.2,4.2c2.7,1.7,2.2,4.7,1.6,6.1c0,0,3.4-3.4-0.3-7.2
		C128.2,168.8,125.7,167.8,125.7,167.8z"/>
	<path fill="#8B8CC7" d="M246.2,34.3c0,0.9-0.1,1.8-0.4,2.6c-1.1,3.6-4.4,6.2-8.4,6.2s-7.3-2.6-8.4-6.2c-0.2-0.8-0.4-1.7-0.4-2.6
		c0-4.9,3.9-8.8,8.8-8.8C242.2,25.5,246.2,29.4,246.2,34.3z"/>
	<path fill="#DFBC97" d="M244.5,33.8c-0.1-0.9-0.2-1.7-0.3-2.6l-0.1-1.1c0-0.4-0.1-0.9-0.3-1.3c-0.2-0.6-0.4-1.3-0.8-1.8
		c-0.6-1-1.5-1.8-2.5-2.3c-0.8-0.4-1.6-0.6-2.4-0.6h-1.9c-0.8,0-1.6,0.2-2.4,0.5c-0.7,0.3-1.3,0.8-1.8,1.3c-0.5,0.6-1,1.3-1.3,2
		c-0.3,0.8-0.5,1.6-0.5,2.5c0,0.2,0,0.3,0,0.5v0.2c-0.1,0.9-0.2,1.8-0.3,2.6c-0.1,0.6-0.5,1.2-1.3,1.8c0.1,0.4,0.2,0.8,0.3,1.2
		c1.1,3.6,4.4,6.2,8.4,6.2s7.3-2.6,8.4-6.2c0.1-0.3,0.2-0.7,0.2-1C245.1,35.1,244.6,34.4,244.5,33.8z"/>
	<path fill="#605D5A" d="M237.4,43c1.8,0,3.5-0.6,4.9-1.5c-0.5-0.3-0.9-0.5-1.5-0.6c-0.2,0-0.4-0.1-0.7-0.1l0,0l0,0
		c-0.7-0.1-1.6-0.2-2.7-0.2c-1.5,0-2.6,0.2-3.5,0.4l0,0c-0.5,0.1-1,0.3-1.5,0.5C233.8,42.4,235.5,43,237.4,43z"/>
	<path fill="#F9DDBF" d="M232.8,32.5h-0.3c-0.3,0-0.6,0.1-0.8,0.3s-0.3,0.5-0.3,0.8s0.1,0.6,0.3,0.8s0.5,0.3,0.8,0.3h0.3V32.5z"/>
	
		<radialGradient id="SVGID_20_" cx="237.1699" cy="-702.3751" r="2.6455" gradientTransform="matrix(1 0 0 -1 0 -666)" gradientUnits="userSpaceOnUse">
		<stop  offset="0" style="stop-color:#9A6541;stop-opacity:0.8471"/>
		<stop  offset="0.9997" style="stop-color:#F9DDBF"/>
	</radialGradient>
	<path fill="url(#SVGID_20_)" d="M237.3,41.4c-1.1,0-1.9-0.2-2.4-0.6c0.8-0.2,1-1.3,1-3l-0.1-2.4h3.1l-0.3,2.3
		c-0.1,1.6,0,2.9,0.9,3.1C239.1,41.1,238.4,41.3,237.3,41.4z"/>
	<path fill="#F9DDBF" d="M237.2,26.9c1.2,0,2.3,0.4,3.2,1.2c0.9,0.8,1.3,1.8,1.3,3V34c0,1.2-0.4,2.1-1.3,2.9
		c-0.9,0.8-1.9,1.2-3.2,1.2l0,0c-1.2,0-2.3-0.4-3.2-1.2s-1.3-1.8-1.3-2.9v-3c0-1.2,0.4-2.1,1.3-3C234.9,27.3,236,26.9,237.2,26.9
		L237.2,26.9z"/>
	
		<radialGradient id="SVGID_21_" cx="-3392.3254" cy="-1524.4841" r="1.9224" gradientTransform="matrix(1 0 0 -0.9918 3629.1658 -1478.1372)" gradientUnits="userSpaceOnUse">
		<stop  offset="0" style="stop-color:#9A6541;stop-opacity:0.8471"/>
		<stop  offset="1" style="stop-color:#F9DDBF;stop-opacity:0"/>
	</radialGradient>
	<path fill="url(#SVGID_21_)" d="M237,36.1h-3v-5.5h3V36.1z"/>
	<path fill="#33312D" d="M239.4,33c-0.1,0.1-0.2,0.2-0.3,0.2s-0.2-0.1-0.3-0.2c-0.1-0.1-0.1-0.3-0.1-0.5s0.1-0.3,0.1-0.5
		c0.1-0.1,0.2-0.2,0.3-0.2s0.2,0.1,0.3,0.2c0.1,0.1,0.1,0.3,0.1,0.5C239.6,32.7,239.5,32.9,239.4,33z"/>
	<path fill="#33312D" d="M235,31.9c0.1,0,0.2,0.1,0.3,0.2s0.1,0.3,0.1,0.5s0,0.3-0.1,0.5c-0.1,0.1-0.2,0.2-0.3,0.2s-0.2-0.1-0.3-0.2
		c-0.1-0.1-0.1-0.3-0.1-0.5s0-0.3,0.1-0.5C234.8,32,234.9,31.9,235,31.9z"/>
	<path fill="#F9DDBF" d="M237,34.8c0,0-0.1-0.1-0.2-0.2c-0.2-0.1-0.3-0.3-0.4-0.3c-0.1-0.1-0.2-0.3-0.2-0.5s0.1-0.3,0.2-0.4
		c0.3-0.3,0.4-0.5,0.5-0.9v-0.4c0.2,0.5,0.2,1.1,0.2,1.8C237.1,34.2,237.1,34.5,237,34.8z"/>
	<path fill="#DFBC97" d="M241.6,26.5c1.2,2.9,1.8,4.8,1.8,4.9c-0.5,0.2-1,0.4-1.5,0.4c-0.9,0-1.6-0.3-2.2-0.9c-0.6-0.6-1-1.3-1-2.2
		h-2.8c0,0.8-0.4,1.6-1,2.2s-1.4,0.9-2.2,0.9c-0.6,0-1.1-0.1-1.6-0.4c0-0.1,0.3-0.9,1-2.4l1-2.5H241.6L241.6,26.5z"/>
	
		<radialGradient id="SVGID_22_" cx="2842.1782" cy="342.7724" r="4.4392" gradientTransform="matrix(-1 0 0 1.0562 3082.0625 -337.4956)" gradientUnits="userSpaceOnUse">
		<stop  offset="0" style="stop-color:#5C2C07;stop-opacity:0.8471"/>
		<stop  offset="1" style="stop-color:#BE906B;stop-opacity:0"/>
	</radialGradient>
	<path fill="url(#SVGID_22_)" d="M237.3,28.4h-2.4v-4.3h2.4V28.4z"/>
	<path fill="#BF8F68" d="M237.3,28.4c0-0.2,0.1-0.3,0.2-0.5c0.1-0.1,0.3-0.2,0.5-0.2s0.3,0.1,0.5,0.2c0.1,0.1,0.2,0.3,0.2,0.5v0.5
		h-1.4V28.4L237.3,28.4z"/>
	<path fill="#BF8F68" d="M235.8,28.4c0-0.2,0.1-0.3,0.2-0.5c0.1-0.1,0.3-0.2,0.5-0.2s0.3,0.1,0.5,0.2c0.1,0.1,0.2,0.3,0.2,0.5v0.5
		h-1.4V28.4L235.8,28.4z"/>
	<path fill="#BF8F68" d="M236.5,35.9c0.4,0,0.6,0,0.9-0.1c0.3,0,0.4-0.1,0.8-0.3l0,0c0.1,0,0.2,0,0.2,0.1c0,0,0,0,0,0.1
		c0,0.2,0,0.5-0.2,0.7s-0.4,0.3-0.6,0.4c-0.5,0.1-1,0-1.3-0.5c0-0.1,0-0.2,0.1-0.2C236.4,35.9,236.4,35.9,236.5,35.9L236.5,35.9z"/>
	<path fill="#F9DDBF" d="M241.6,32.5h0.3c0.3,0,0.6,0.1,0.8,0.3s0.3,0.5,0.3,0.8s-0.1,0.6-0.3,0.8s-0.5,0.3-0.8,0.3h-0.3V32.5z"/>
	<path fill="#8B8CC7" d="M246.2,80.6c0,0.9-0.1,1.8-0.4,2.6c-1.1,3.6-4.4,6.2-8.4,6.2s-7.3-2.6-8.4-6.2c-0.2-0.8-0.4-1.7-0.4-2.6
		c0-4.9,3.9-8.8,8.8-8.8C242.2,71.7,246.2,75.7,246.2,80.6z"/>
	<path fill="#DFBC97" d="M244.5,80.1c-0.1-0.9-0.2-1.7-0.3-2.6l-0.1-1.1c0-0.4-0.1-0.9-0.3-1.3c-0.2-0.6-0.4-1.3-0.8-1.8
		c-0.6-1-1.5-1.8-2.5-2.3c-0.8-0.4-1.6-0.6-2.4-0.6h-1.9c-0.8,0-1.6,0.2-2.4,0.5c-0.7,0.3-1.3,0.8-1.8,1.3c-0.5,0.6-1,1.3-1.3,2
		c-0.3,0.8-0.5,1.6-0.5,2.5c0,0.2,0,0.3,0,0.5v0.2c-0.1,0.9-0.2,1.8-0.3,2.6c-0.1,0.6-0.5,1.2-1.3,1.8c0.1,0.4,0.2,0.8,0.3,1.2
		c1.1,3.6,4.4,6.2,8.4,6.2s7.3-2.6,8.4-6.2c0.1-0.3,0.2-0.7,0.2-1C245.1,81.4,244.6,80.7,244.5,80.1z"/>
	<path fill="#605D5A" d="M237.4,89.3c1.8,0,3.5-0.6,4.9-1.5c-0.5-0.3-0.9-0.5-1.5-0.6c-0.2,0-0.4-0.1-0.7-0.1l0,0l0,0
		c-0.7-0.1-1.6-0.2-2.7-0.2c-1.5,0-2.6,0.2-3.5,0.4l0,0c-0.5,0.1-1,0.3-1.5,0.5C233.8,88.7,235.5,89.3,237.4,89.3z"/>
	<path fill="#F9DDBF" d="M232.8,78.8h-0.3c-0.3,0-0.6,0.1-0.8,0.3c-0.2,0.2-0.3,0.5-0.3,0.8s0.1,0.6,0.3,0.8
		c0.2,0.2,0.5,0.3,0.8,0.3h0.3V78.8z"/>
	
		<radialGradient id="SVGID_23_" cx="237.1699" cy="-748.6671" r="2.6455" gradientTransform="matrix(1 0 0 -1 0 -666)" gradientUnits="userSpaceOnUse">
		<stop  offset="0" style="stop-color:#9A6541;stop-opacity:0.8471"/>
		<stop  offset="0.9997" style="stop-color:#F9DDBF"/>
	</radialGradient>
	<path fill="url(#SVGID_23_)" d="M237.3,87.6c-1.1,0-1.9-0.2-2.4-0.6c0.8-0.2,1-1.3,1-3l-0.1-2.4h3.1l-0.3,2.3
		c-0.1,1.6,0,2.9,0.9,3.1C239.1,87.4,238.4,87.6,237.3,87.6z"/>
	<path fill="#F9DDBF" d="M237.2,73.2c1.2,0,2.3,0.4,3.2,1.2c0.9,0.8,1.3,1.8,1.3,3v2.9c0,1.2-0.4,2.1-1.3,2.9
		c-0.9,0.8-1.9,1.2-3.2,1.2l0,0c-1.2,0-2.3-0.4-3.2-1.2c-0.9-0.8-1.3-1.8-1.3-2.9v-2.9c0-1.2,0.4-2.1,1.3-3
		C234.9,73.6,236,73.2,237.2,73.2L237.2,73.2z"/>
	
		<radialGradient id="SVGID_24_" cx="-3392.3254" cy="-1571.1611" r="1.9224" gradientTransform="matrix(1 0 0 -0.9918 3629.1658 -1478.1372)" gradientUnits="userSpaceOnUse">
		<stop  offset="0" style="stop-color:#9A6541;stop-opacity:0.8471"/>
		<stop  offset="1" style="stop-color:#F9DDBF;stop-opacity:0"/>
	</radialGradient>
	<path fill="url(#SVGID_24_)" d="M237,82.4h-3v-5.5h3V82.4z"/>
	<path fill="#33312D" d="M239.4,79.3c-0.1,0.1-0.2,0.2-0.3,0.2s-0.2-0.1-0.3-0.2s-0.1-0.3-0.1-0.5s0.1-0.3,0.1-0.5
		c0.1-0.1,0.2-0.2,0.3-0.2s0.2,0.1,0.3,0.2s0.1,0.3,0.1,0.5C239.6,79,239.5,79.2,239.4,79.3z"/>
	<path fill="#33312D" d="M235,78.2c0.1,0,0.2,0.1,0.3,0.2s0.1,0.3,0.1,0.5s0,0.3-0.1,0.5c-0.1,0.1-0.2,0.2-0.3,0.2s-0.2-0.1-0.3-0.2
		s-0.1-0.3-0.1-0.5s0-0.3,0.1-0.5S234.9,78.2,235,78.2z"/>
	<path fill="#F9DDBF" d="M237,81c0,0-0.1-0.1-0.2-0.2c-0.2-0.1-0.3-0.3-0.4-0.3c-0.1-0.1-0.2-0.3-0.2-0.5s0.1-0.3,0.2-0.4
		c0.3-0.3,0.4-0.5,0.5-0.9v-0.4c0.2,0.5,0.2,1.1,0.2,1.8C237.1,80.5,237.1,80.8,237,81z"/>
	<path fill="#DFBC97" d="M241.6,72.8c1.2,2.9,1.8,4.8,1.8,4.9c-0.5,0.2-1,0.4-1.5,0.4c-0.9,0-1.6-0.3-2.2-0.9c-0.6-0.6-1-1.3-1-2.2
		h-2.8c0,0.8-0.4,1.6-1,2.2s-1.4,0.9-2.2,0.9c-0.6,0-1.1-0.1-1.6-0.4c0-0.1,0.3-0.9,1-2.4l1-2.5H241.6L241.6,72.8z"/>
	
		<radialGradient id="SVGID_25_" cx="2842.1782" cy="386.599" r="4.4392" gradientTransform="matrix(-1 0 0 1.0562 3082.0625 -337.4956)" gradientUnits="userSpaceOnUse">
		<stop  offset="0" style="stop-color:#5C2C07;stop-opacity:0.8471"/>
		<stop  offset="1" style="stop-color:#BE906B;stop-opacity:0"/>
	</radialGradient>
	<path fill="url(#SVGID_25_)" d="M237.3,74.6h-2.4v-4.3h2.4V74.6z"/>
	<path fill="#BF8F68" d="M237.3,74.6c0-0.2,0.1-0.3,0.2-0.5c0.1-0.1,0.3-0.2,0.5-0.2s0.3,0.1,0.5,0.2c0.1,0.1,0.2,0.3,0.2,0.5v0.5
		h-1.4V74.6L237.3,74.6z"/>
	<path fill="#BF8F68" d="M235.8,74.6c0-0.2,0.1-0.3,0.2-0.5c0.1-0.1,0.3-0.2,0.5-0.2s0.3,0.1,0.5,0.2c0.1,0.1,0.2,0.3,0.2,0.5v0.5
		h-1.4V74.6L235.8,74.6z"/>
	<path fill="#BF8F68" d="M236.5,82.2c0.4,0,0.6,0,0.9-0.1c0.3,0,0.4-0.1,0.8-0.3l0,0c0.1,0,0.2,0,0.2,0.1c0,0,0,0,0,0.1
		c0,0.2,0,0.5-0.2,0.7s-0.4,0.3-0.6,0.4c-0.5,0.1-1,0-1.3-0.5c0-0.1,0-0.2,0.1-0.2C236.4,82.2,236.4,82.2,236.5,82.2L236.5,82.2z"/>
	<path fill="#F9DDBF" d="M241.6,78.8h0.3c0.3,0,0.6,0.1,0.8,0.3c0.2,0.2,0.3,0.5,0.3,0.8s-0.1,0.6-0.3,0.8c-0.2,0.2-0.5,0.3-0.8,0.3
		h-0.3V78.8z"/>
	<path fill="#8B8CC7" d="M246.2,144.9c0,0.9-0.1,1.8-0.4,2.6c-1.1,3.6-4.4,6.2-8.4,6.2s-7.3-2.6-8.4-6.2c-0.2-0.8-0.4-1.7-0.4-2.6
		c0-4.9,3.9-8.8,8.8-8.8C242.2,136.1,246.2,140.1,246.2,144.9z"/>
	<path fill="#DFBC97" d="M244.5,144.5c-0.1-0.9-0.2-1.7-0.3-2.6l-0.1-1.1c0-0.4-0.1-0.9-0.3-1.3c-0.2-0.6-0.4-1.3-0.8-1.8
		c-0.6-1-1.5-1.8-2.5-2.3c-0.8-0.4-1.6-0.6-2.4-0.6h-1.9c-0.8,0-1.6,0.2-2.4,0.5c-0.7,0.3-1.3,0.8-1.8,1.3c-0.5,0.6-1,1.3-1.3,2
		c-0.3,0.8-0.5,1.6-0.5,2.5c0,0.2,0,0.3,0,0.5v0.2c-0.1,0.9-0.2,1.8-0.3,2.6c-0.1,0.6-0.5,1.2-1.3,1.8c0.1,0.4,0.2,0.8,0.3,1.2
		c1.1,3.6,4.4,6.2,8.4,6.2s7.3-2.6,8.4-6.2c0.1-0.3,0.2-0.7,0.2-1C245.1,145.7,244.6,145.1,244.5,144.5z"/>
	<path fill="#605D5A" d="M237.4,153.7c1.8,0,3.5-0.6,4.9-1.5c-0.5-0.3-0.9-0.5-1.5-0.6c-0.2,0-0.4-0.1-0.7-0.1l0,0l0,0
		c-0.7-0.1-1.6-0.2-2.7-0.2c-1.5,0-2.6,0.2-3.5,0.4l0,0c-0.5,0.1-1,0.3-1.5,0.5C233.8,153.1,235.5,153.7,237.4,153.7z"/>
	<path fill="#F9DDBF" d="M232.8,143.2h-0.3c-0.3,0-0.6,0.1-0.8,0.3s-0.3,0.5-0.3,0.8s0.1,0.6,0.3,0.8s0.5,0.3,0.8,0.3h0.3V143.2z"/>
	
		<radialGradient id="SVGID_26_" cx="237.1699" cy="-813.0413" r="2.6455" gradientTransform="matrix(1 0 0 -1 0 -666)" gradientUnits="userSpaceOnUse">
		<stop  offset="0" style="stop-color:#9A6541;stop-opacity:0.8471"/>
		<stop  offset="0.9997" style="stop-color:#F9DDBF"/>
	</radialGradient>
	<path fill="url(#SVGID_26_)" d="M237.3,152c-1.1,0-1.9-0.2-2.4-0.6c0.8-0.2,1-1.3,1-3l-0.1-2.4h3.1l-0.3,2.3
		c-0.1,1.6,0,2.9,0.9,3.1C239.1,151.8,238.4,152,237.3,152z"/>
	<path fill="#F9DDBF" d="M237.2,137.5c1.2,0,2.3,0.4,3.2,1.2s1.3,1.8,1.3,3v2.9c0,1.2-0.4,2.1-1.3,2.9c-0.9,0.8-1.9,1.2-3.2,1.2l0,0
		c-1.2,0-2.3-0.4-3.2-1.2s-1.3-1.8-1.3-2.9v-2.9c0-1.2,0.4-2.1,1.3-3C234.9,137.9,236,137.5,237.2,137.5L237.2,137.5z"/>
	
		<radialGradient id="SVGID_27_" cx="-3392.3254" cy="-1636.0706" r="1.9224" gradientTransform="matrix(1 0 0 -0.9918 3629.1658 -1478.1372)" gradientUnits="userSpaceOnUse">
		<stop  offset="0" style="stop-color:#9A6541;stop-opacity:0.8471"/>
		<stop  offset="1" style="stop-color:#F9DDBF;stop-opacity:0"/>
	</radialGradient>
	<path fill="url(#SVGID_27_)" d="M237,146.8h-3v-5.5h3V146.8z"/>
	<path fill="#33312D" d="M239.4,143.7c-0.1,0.1-0.2,0.2-0.3,0.2s-0.2-0.1-0.3-0.2c-0.1-0.1-0.1-0.3-0.1-0.5s0.1-0.3,0.1-0.5
		c0.1-0.1,0.2-0.2,0.3-0.2s0.2,0.1,0.3,0.2c0.1,0.1,0.1,0.3,0.1,0.5C239.6,143.4,239.5,143.6,239.4,143.7z"/>
	<path fill="#33312D" d="M235,142.6c0.1,0,0.2,0.1,0.3,0.2c0.1,0.1,0.1,0.3,0.1,0.5s0,0.3-0.1,0.5c-0.1,0.1-0.2,0.2-0.3,0.2
		s-0.2-0.1-0.3-0.2c-0.1-0.1-0.1-0.3-0.1-0.5s0-0.3,0.1-0.5S234.9,142.6,235,142.6z"/>
	<path fill="#F9DDBF" d="M237,145.4c0,0-0.1-0.1-0.2-0.2c-0.2-0.1-0.3-0.3-0.4-0.3c-0.1-0.1-0.2-0.3-0.2-0.5s0.1-0.3,0.2-0.4
		c0.3-0.3,0.4-0.5,0.5-0.9v-0.4c0.2,0.5,0.2,1.1,0.2,1.8C237.1,144.9,237.1,145.2,237,145.4z"/>
	<path fill="#DFBC97" d="M241.6,137.2c1.2,2.9,1.8,4.8,1.8,4.9c-0.5,0.2-1,0.4-1.5,0.4c-0.9,0-1.6-0.3-2.2-0.9c-0.6-0.6-1-1.3-1-2.2
		h-2.8c0,0.8-0.4,1.6-1,2.2c-0.6,0.6-1.4,0.9-2.2,0.9c-0.6,0-1.1-0.1-1.6-0.4c0-0.1,0.3-0.9,1-2.4l1-2.5H241.6L241.6,137.2z"/>
	
		<radialGradient id="SVGID_28_" cx="2842.1782" cy="447.545" r="4.4392" gradientTransform="matrix(-1 0 0 1.0562 3082.0625 -337.4956)" gradientUnits="userSpaceOnUse">
		<stop  offset="0" style="stop-color:#5C2C07;stop-opacity:0.8471"/>
		<stop  offset="1" style="stop-color:#BE906B;stop-opacity:0"/>
	</radialGradient>
	<path fill="url(#SVGID_28_)" d="M237.3,139h-2.4v-4.3h2.4V139z"/>
	<path fill="#BF8F68" d="M237.3,139c0-0.2,0.1-0.3,0.2-0.5c0.1-0.1,0.3-0.2,0.5-0.2s0.3,0.1,0.5,0.2c0.1,0.1,0.2,0.3,0.2,0.5v0.5
		h-1.4V139L237.3,139z"/>
	<path fill="#BF8F68" d="M235.8,139c0-0.2,0.1-0.3,0.2-0.5c0.1-0.1,0.3-0.2,0.5-0.2s0.3,0.1,0.5,0.2c0.1,0.1,0.2,0.3,0.2,0.5v0.5
		h-1.4V139L235.8,139z"/>
	<path fill="#BF8F68" d="M236.5,146.6c0.4,0,0.6,0,0.9-0.1c0.3,0,0.4-0.1,0.8-0.3l0,0c0.1,0,0.2,0,0.2,0.1c0,0,0,0,0,0.1
		c0,0.2,0,0.5-0.2,0.7s-0.4,0.3-0.6,0.4c-0.5,0.1-1,0-1.3-0.5c0-0.1,0-0.2,0.1-0.2C236.4,146.6,236.4,146.6,236.5,146.6L236.5,146.6
		z"/>
	<path fill="#F9DDBF" d="M241.6,143.2h0.3c0.3,0,0.6,0.1,0.8,0.3s0.3,0.5,0.3,0.8s-0.1,0.6-0.3,0.8s-0.5,0.3-0.8,0.3h-0.3V143.2z"/>
	<path fill="#8B8CC7" d="M135,53.6c0,0.9-0.1,1.8-0.4,2.6c-1.1,3.6-4.4,6.2-8.4,6.2c-4,0-7.3-2.6-8.4-6.2c-0.2-0.8-0.4-1.7-0.4-2.6
		c0-4.9,3.9-8.8,8.8-8.8C131,44.8,135,48.7,135,53.6z"/>
	<path fill="#DFBC97" d="M133.3,53.1c-0.1-0.9-0.2-1.7-0.3-2.6l-0.1-1.1c0-0.4-0.1-0.9-0.3-1.3c-0.2-0.6-0.4-1.3-0.8-1.8
		c-0.6-1-1.5-1.8-2.5-2.3c-0.8-0.4-1.6-0.6-2.4-0.6H125c-0.8,0-1.6,0.2-2.4,0.5c-0.7,0.3-1.3,0.8-1.8,1.3c-0.5,0.6-1,1.3-1.3,2
		c-0.3,0.8-0.5,1.6-0.5,2.5c0,0.2,0,0.3,0,0.5v0.2c-0.1,0.9-0.2,1.8-0.3,2.6c-0.1,0.6-0.5,1.2-1.3,1.8c0.1,0.4,0.2,0.8,0.3,1.2
		c1.1,3.6,4.4,6.2,8.4,6.2s7.3-2.6,8.4-6.2c0.1-0.3,0.2-0.7,0.2-1C133.9,54.4,133.4,53.7,133.3,53.1z"/>
	<path fill="#605D5A" d="M126.2,62.4c1.8,0,3.5-0.6,4.9-1.5c-0.5-0.3-0.9-0.5-1.5-0.6c-0.2,0-0.4-0.1-0.7-0.1l0,0l0,0
		c-0.7-0.1-1.6-0.2-2.7-0.2c-1.5,0-2.6,0.2-3.5,0.4l0,0c-0.5,0.1-1,0.3-1.5,0.5C122.6,61.8,124.3,62.4,126.2,62.4z"/>
	<path fill="#F9DDBF" d="M121.6,51.8h-0.3c-0.3,0-0.6,0.1-0.8,0.3c-0.2,0.2-0.3,0.5-0.3,0.8s0.1,0.6,0.3,0.8
		c0.2,0.2,0.5,0.3,0.8,0.3h0.3C121.6,54.1,121.6,51.8,121.6,51.8z"/>
	
		<radialGradient id="SVGID_29_" cx="125.9701" cy="-721.7153" r="2.6455" gradientTransform="matrix(1 0 0 -1 0 -666)" gradientUnits="userSpaceOnUse">
		<stop  offset="0" style="stop-color:#9A6541;stop-opacity:0.8471"/>
		<stop  offset="0.9997" style="stop-color:#F9DDBF"/>
	</radialGradient>
	<path fill="url(#SVGID_29_)" d="M126.1,60.7c-1.1,0-1.9-0.2-2.4-0.6c0.8-0.2,1-1.3,1-3l-0.1-2.4h3.1l-0.3,2.3
		c-0.1,1.6,0,2.9,0.9,3.1C127.9,60.4,127.2,60.6,126.1,60.7z"/>
	<path fill="#F9DDBF" d="M126,46.2c1.2,0,2.3,0.4,3.2,1.2s1.3,1.8,1.3,3v2.9c0,1.2-0.4,2.1-1.3,2.9c-0.9,0.8-1.9,1.2-3.2,1.2l0,0
		c-1.2,0-2.3-0.4-3.2-1.2c-0.9-0.8-1.3-1.8-1.3-2.9v-2.9c0-1.2,0.4-2.1,1.3-3C123.7,46.6,124.8,46.2,126,46.2L126,46.2z"/>
	
		<radialGradient id="SVGID_30_" cx="-3503.5254" cy="-1543.9851" r="1.9224" gradientTransform="matrix(1 0 0 -0.9918 3629.1658 -1478.1372)" gradientUnits="userSpaceOnUse">
		<stop  offset="0" style="stop-color:#9A6541;stop-opacity:0.8471"/>
		<stop  offset="1" style="stop-color:#F9DDBF;stop-opacity:0"/>
	</radialGradient>
	<path fill="url(#SVGID_30_)" d="M125.8,55.4h-3V50h3V55.4z"/>
	<path fill="#33312D" d="M128.2,52.4c-0.1,0.1-0.2,0.2-0.3,0.2c-0.1,0-0.2-0.1-0.3-0.2c-0.1-0.1-0.1-0.3-0.1-0.5s0.1-0.3,0.1-0.5
		c0.1-0.1,0.2-0.2,0.3-0.2c0.1,0,0.2,0.1,0.3,0.2c0.1,0.1,0.1,0.3,0.1,0.5C128.4,52.1,128.3,52.2,128.2,52.4z"/>
	<path fill="#33312D" d="M123.8,51.2c0.1,0,0.2,0.1,0.3,0.2c0.1,0.1,0.1,0.3,0.1,0.5s0,0.3-0.1,0.5c-0.1,0.1-0.2,0.2-0.3,0.2
		c-0.1,0-0.2-0.1-0.3-0.2c-0.1-0.1-0.1-0.3-0.1-0.5s0-0.3,0.1-0.5C123.6,51.3,123.7,51.2,123.8,51.2z"/>
	<path fill="#F9DDBF" d="M125.8,54.1c0,0-0.1-0.1-0.2-0.2c-0.2-0.1-0.3-0.3-0.4-0.3c-0.1-0.1-0.2-0.3-0.2-0.5s0.1-0.3,0.2-0.4
		c0.3-0.3,0.4-0.5,0.5-0.9v-0.4c0.2,0.5,0.2,1.1,0.2,1.8C125.9,53.5,125.9,53.8,125.8,54.1z"/>
	<path fill="#DFBC97" d="M130.4,45.9c1.2,2.9,1.8,4.8,1.8,4.9c-0.5,0.2-1,0.4-1.5,0.4c-0.9,0-1.6-0.3-2.2-0.9c-0.6-0.6-1-1.3-1-2.2
		h-2.8c0,0.8-0.4,1.6-1,2.2c-0.6,0.6-1.4,0.9-2.2,0.9c-0.6,0-1.1-0.1-1.6-0.4c0-0.1,0.3-0.9,1-2.4l1-2.5H130.4L130.4,45.9z"/>
	
		<radialGradient id="SVGID_31_" cx="2953.3779" cy="361.0826" r="4.4392" gradientTransform="matrix(-1 0 0 1.0562 3082.0625 -337.4956)" gradientUnits="userSpaceOnUse">
		<stop  offset="0" style="stop-color:#5C2C07;stop-opacity:0.8471"/>
		<stop  offset="1" style="stop-color:#BE906B;stop-opacity:0"/>
	</radialGradient>
	<path fill="url(#SVGID_31_)" d="M126.1,47.7h-2.4v-4.3h2.4V47.7z"/>
	<path fill="#BF8F68" d="M126.1,47.7c0-0.2,0.1-0.3,0.2-0.5c0.1-0.1,0.3-0.2,0.5-0.2s0.3,0.1,0.5,0.2c0.1,0.1,0.2,0.3,0.2,0.5v0.5
		h-1.4L126.1,47.7L126.1,47.7z"/>
	<path fill="#BF8F68" d="M124.6,47.7c0-0.2,0.1-0.3,0.2-0.5c0.1-0.1,0.3-0.2,0.5-0.2s0.3,0.1,0.5,0.2c0.1,0.1,0.2,0.3,0.2,0.5v0.5
		h-1.4L124.6,47.7L124.6,47.7z"/>
	<path fill="#BF8F68" d="M125.3,55.3c0.4,0,0.6,0,0.9-0.1c0.3,0,0.4-0.1,0.8-0.3l0,0c0.1,0,0.2,0,0.2,0.1c0,0,0,0,0,0.1
		c0,0.2,0,0.5-0.2,0.7s-0.4,0.3-0.6,0.4c-0.5,0.1-1,0-1.3-0.5c0-0.1,0-0.2,0.1-0.2C125.2,55.3,125.2,55.3,125.3,55.3L125.3,55.3z"/>
	<path fill="#F9DDBF" d="M130.4,51.9h0.3c0.3,0,0.6,0.1,0.8,0.3s0.3,0.5,0.3,0.8s-0.1,0.6-0.3,0.8s-0.5,0.3-0.8,0.3h-0.3
		C130.4,54.2,130.4,51.9,130.4,51.9z"/>
	<path fill="#6264A7" d="M537.5,73.5H404.4c-0.9,0-1.6-0.7-1.6-1.6V29.4c0-0.9,0.7-1.6,1.6-1.6h133.1c0.9,0,1.6,0.7,1.6,1.6v42.5
		C539.1,72.8,538.4,73.5,537.5,73.5z"/>
	<path fill="#6264A7" d="M466.9,73.5h-63.4c-0.4,0-0.8-0.7-0.8-1.6V29.4c0-0.9,0.3-1.6,0.8-1.6h63.4V73.5L466.9,73.5z"/>
	<rect x="446.2" y="43.9" fill="#8B8CC7" width="51.7" height="5.4"/>
	<rect x="446.2" y="53.5" fill="#8B8CC7" width="44.5" height="3.6"/>
	<rect x="506.7" y="44.8" fill="#8B8CC7" width="8.7" height="3.6"/>
	<path fill="#E2E2F6" d="M536.1,17c-0.1,0-0.2,0-0.3,0c-0.6-0.1-1-0.7-0.8-1.3l1.7-7c0.1-0.6,0.7-1,1.3-0.8c0.6,0.1,1,0.7,0.8,1.3
		l-1.7,7C537.1,16.6,536.6,17,536.1,17z"/>
	<path fill="#E2E2F6" d="M518.7,17.8c-0.5,0-0.9-0.3-1.1-0.8l-2.2-6.5c-0.2-0.6,0.1-1.2,0.7-1.4c0.6-0.2,1.2,0.1,1.4,0.7l2.2,6.5
		c0.2,0.6-0.1,1.2-0.7,1.4C519,17.8,518.8,17.8,518.7,17.8z"/>
	<path fill="#E2E2F6" d="M550.7,24.5c-0.3,0-0.7-0.1-0.9-0.4c-0.4-0.5-0.3-1.2,0.2-1.6l6.1-4.7c0.5-0.4,1.2-0.3,1.6,0.2
		c0.4,0.5,0.3,1.2-0.2,1.6l-6.1,4.7C551.2,24.4,551,24.5,550.7,24.5z"/>
	<path fill="#E2E2F6" d="M553.8,40c-0.6,0-1-0.4-1.1-1s0.4-1.2,1-1.2l7.9-0.9c0.6-0.1,1.2,0.4,1.2,1c0.1,0.6-0.4,1.2-1,1.2l-7.9,0.9
		H553.8z"/>
	
		<ellipse transform="matrix(0.5002 -0.8659 0.8659 0.5002 -40.7533 98.0981)" fill="#594539" cx="64.6" cy="84.4" rx="29.9" ry="31"/>
	<path fill="#594539" d="M77.6,26.5c2.3,10,5.4,26,14.8,46.1c-13.2,5.6-37.3,5-55.4-2.6c4.9-9.8,8.8-26.6,7.6-37.6
		C44.9,30.3,77.1,24,77.6,26.5z"/>
	<rect x="44.4" y="63" fill="#EE8F94" width="8" height="27"/>
	<path fill="#BF8F68" d="M17.7,88.6c0.1,0.1,1.8,1.7,2.8,2.6c0.4,0.4,1,0.6,1.6,0.5l7.2-0.6l1.9-0.2v-2.8L17.7,88.6z"/>
	<polygon fill="#EE8F94" points="49.1,94.7 29.3,91.2 29.3,87.5 49.1,87.5 	"/>
	<circle fill="#EE8F94" cx="54.1" cy="62.8" r="9.8"/>
	<ellipse fill="#C3C3E1" cx="62.3" cy="113.7" rx="21.7" ry="20.3"/>
	<path fill="#C3C3E1" d="M41.8,107c-11.9,19.2,1.1,118.2,1.3,129.5c0,1.1-0.6,2.2-1.6,2.7l-6.1,2.7c-0.7,0.5-0.4,1.6,0.5,1.6h9.8
		c1.1,0,1.9-0.9,2-1.9l17-116.9C64.6,124.6,48.6,95.8,41.8,107z"/>
	<path fill="#C3C3E1" d="M41.8,107c-11.9,19.2,1.1,118.2,1.3,129.5c0,1.1-0.6,2.2-1.6,2.7l-6.1,2.7c-0.7,0.5-0.4,1.6,0.5,1.6h9.8
		c1.1,0,1.9-0.9,2-1.9L63.2,134c0,0-5.5-5.5-10.9-12.5C48.8,116.9,44.9,111.7,41.8,107z"/>
	<path fill="#EE8F94" d="M82.8,107h-41l4.9-12.4c2.3-11-1.2-25.1-1.2-25.1l33.2,3.7c0,0-3.6,8.9-0.8,21.4L82.8,107z"/>
	<ellipse transform="matrix(0.9919 -0.1273 0.1273 0.9919 -3.4453 8.0817)" fill="#594539" cx="61.5" cy="31" rx="16.8" ry="18.6"/>
	<ellipse transform="matrix(0.9937 -0.1125 0.1125 0.9937 -4.1432 5.9789)" fill="#E3646A" cx="50.9" cy="39.7" rx="2.1" ry="2.2"/>
	<rect x="59.5" y="39.2" fill="#BF8F68" width="7.5" height="13"/>
	
		<radialGradient id="SVGID_32_" cx="2282.9717" cy="-476.3726" r="8.3451" gradientTransform="matrix(-1 0 0 -1.1284 2345.5129 -495.4801)" gradientUnits="userSpaceOnUse">
		<stop  offset="0" style="stop-color:#9B643D"/>
		<stop  offset="0.8819" style="stop-color:#BA8A63;stop-opacity:0.1178"/>
		<stop  offset="0.9997" style="stop-color:#BF8F68;stop-opacity:0"/>
	</radialGradient>
	<rect x="59.5" y="39.2" fill="url(#SVGID_32_)" width="7.4" height="13"/>
	
		<ellipse transform="matrix(0.9919 -0.1273 0.1273 0.9919 -3.4953 7.9056)" fill="#BF8F68" cx="60.1" cy="31.3" rx="11.1" ry="13.5"/>
	<ellipse transform="matrix(0.9937 -0.1125 0.1125 0.9937 -3.0392 7.3488)" fill="#33312D" cx="63.6" cy="30.6" rx="1" ry="1.7"/>
	
		<radialGradient id="SVGID_33_" cx="2427.8867" cy="-630.5259" r="5.4046" gradientTransform="matrix(-0.9795 0.2016 -0.2125 -1.0326 2302.062 -1105.4729)" gradientUnits="userSpaceOnUse">
		<stop  offset="3.000000e-04" style="stop-color:#9B643D"/>
		<stop  offset="0.8822" style="stop-color:#BA8A63;stop-opacity:0.1178"/>
		<stop  offset="1" style="stop-color:#BF8F68;stop-opacity:0"/>
	</radialGradient>
	<path fill="url(#SVGID_33_)" d="M58.5,24.1l0.3,4.5c0.1,2.3-0.9,4-1.7,5c-0.4,0.5-0.5,1.8,0.2,2.4c0.4,0.3,1.9,1,2,2.1l0.4,4.1
		l-8.3,1.1l-2-18.3L58.5,24.1z"/>
	<path fill="#9B643D" d="M58.9,38.9c0.4,0,0.7,0,1.1-0.1c0.3-0.1,0.7-0.2,1-0.3s0.7-0.3,1-0.4c0.3-0.2,0.6-0.3,0.9-0.5l0.1-0.1
		c0.1-0.1,0.3-0.1,0.4,0l0.1,0.1c0.2,0.7-0.2,1.3-0.5,1.7c-0.4,0.4-0.9,0.7-1.4,0.9s-1.1,0.3-1.7,0.2c-0.6-0.1-1.2-0.4-1.5-0.9
		c-0.1-0.2,0-0.4,0.1-0.5C58.7,38.9,58.7,38.9,58.9,38.9L58.9,38.9z"/>
	<path fill="#594539" d="M47.6,21.8c0,0,2.5,0.9,5.3-1.2c2.7-2,4.7,0.3,6.1,1.9c3,3.4,7.7,6.2,11.9,5.1c3-0.8,2.5-10.7-6.8-12.8
		C54.3,12.6,47.6,21.8,47.6,21.8z"/>
	<path fill="#BF8F68" d="M67.5,34.6l4.3-0.6c1.7-0.2,3-1.8,2.7-3.5v-0.2c-0.2-1.7-1.8-3-3.5-2.7l-4.3,0.6L67.5,34.6z"/>
	<path fill="#C3C3E1" d="M82.8,107c10.1,24.1,4.6,75.7-9.4,129.3c-0.3,1.2,0.3,2.5,1.5,3l5.9,2.2c1,0.6,0.6,2.1-0.6,2.1H69.7
		c-1.1,0-2-0.9-2.1-2L62,118.4C62,118.4,76.3,108.7,82.8,107z"/>
	<ellipse transform="matrix(0.9937 -0.1125 0.1125 0.9937 -3.5784 8.3838)" fill="#E3646A" cx="72.5" cy="35.9" rx="2.1" ry="2.2"/>
	<circle fill="#EE8F94" cx="62.3" cy="68.4" r="17"/>
	
		<radialGradient id="SVGID_34_" cx="81.4043" cy="-755.0684" r="25.3228" gradientTransform="matrix(1 0 0 -1 0 -666)" gradientUnits="userSpaceOnUse">
		<stop  offset="0" style="stop-color:#E3646A"/>
		<stop  offset="1" style="stop-color:#E3646A;stop-opacity:0"/>
	</radialGradient>
	<path fill="url(#SVGID_34_)" d="M41.8,107h41l-4.9-12.4c-1.7-7.6-1-13.8-0.2-17.6c1.2-2.5,1.7-5.4,1.7-8.6c0-9.4-7.6-17-17-17
		s-17,7.6-17,17c0,2.2,0.4,4.2,1.1,6.1c0.8,5.1,1.6,13.2,0.2,20L41.8,107z"/>
	<path fill="#EE8F94" d="M51.3,86c0,0,28,16.7,37.6,3.1c4.9-6.9,1.8-31-16.6-37c-11.3,2.4-5.8,12.7-5.8,12.7s10.6,3.4,12.9,15.5
		c1.6,8.3-27.9,2.3-27.9,2.3L51.3,86z"/>
	<path fill="#BF8F68" d="M51.3,86l-6.1-2.2l-1.1-0.3c-0.5,0-0.9,0.3-1.1,0.7l-0.8,1.3l-1.8-1.1l0.6-2c0.2-0.6,0.6-1,1.1-1.2l1.7-1
		L42,80.7l-1.5,1.2h-1.4l2.7-2.6l2.4-0.4c0.4-0.1,0.7,0,1,0.2l6.2,3.5L51.3,86z"/>
	<path fill="#C8C6C4" d="M44,85.9H7.4c-0.5,0-1-0.3-1.1-0.8L0,63.1c-0.2-0.7,0.3-1.5,1.1-1.5h36.5c0.5,0,1,0.3,1.1,0.8L45,84.3
		C45.3,85.2,44.7,85.9,44,85.9z"/>
	<path fill="#C8C6C4" d="M51.3,89.2H8.1c-0.9,0-1.6-0.7-1.6-1.6l0,0c0-0.9,0.7-1.6,1.6-1.6h43.1c0.9,0,1.6,0.7,1.6,1.6l0,0
		C52.9,88.4,52.2,89.2,51.3,89.2z"/>
	<path fill="#BF8F68" d="M66.9,47.1c0,0,0,3.5,4.6,4.8l-5.2,1.4L66.9,47.1z"/>
	<path fill="#BF8F68" d="M59.5,46.7v2.8c0,1.2-0.9,2.3-2.1,2.6l-5.1,1.1l8.1-0.2L59.5,46.7z"/>
	<path fill="#BF8F68" d="M53,53.1C53,53.1,53.1,53.1,53,53.1c0.2,0.1,0.2,0.1,0.3,0.1c0.2,0.1,0.5,0.2,0.8,0.3
		c1.4,0.5,3.1,0.8,5,0.9l0,0c1.4,0.1,2.9,0.2,4.5,0.1c1.6-0.1,3.1-0.2,4.5-0.5c0.8-0.2,1.6-0.3,2.4-0.5c1-0.3,1.9-0.6,2.7-0.9
		c-0.6-0.2-1.1-0.4-1.7-0.6c-0.4-0.1-0.8-0.3-1.2-0.4C68.8,51,68,50,67.5,49.2c-0.2,0-0.4-0.1-0.6-0.1c-0.1,0-0.1,0-0.2,0
		c-0.3,0-0.5-0.1-0.8-0.1l0,0c-1.1-0.1-2.2-0.1-3.3-0.1c-0.8,0-1.5,0.1-2.2,0.2l0,0c-0.2,0-0.4,0.1-0.6,0.1c-0.1,0-0.2,0-0.3,0.1
		v0.3c0,1.2-0.9,2.3-2.1,2.6L53,53.1z"/>
	<ellipse transform="matrix(0.9899 -0.1421 0.1421 0.9899 -3.9687 8.0381)" fill="#33312D" cx="54.3" cy="31.8" rx="1" ry="1.7"/>
	<path fill="#B3AFAB" d="M412.5,219.2c0,0,0.5,23.9,4.5,29.5c1.1,0,5.6,0,6.6,0c4-5.6,4.5-29.5,4.5-29.5H412.5z"/>
	<path fill="#B3AFAB" d="M428.2,222.4h-15.9c-0.9,0-1.6-0.7-1.6-1.6l0,0c0-0.9,0.7-1.6,1.6-1.6h15.9c0.9,0,1.6,0.7,1.6,1.6l0,0
		C429.8,221.7,429.1,222.4,428.2,222.4z"/>
	<path fill="#797673" d="M412.6,222.4c0.3,6.7,1.3,21.9,4.4,26.3c1.1,0,5.6,0,6.6,0c3.1-4.3,4.1-19.6,4.4-26.3H412.6z"/>
	
		<linearGradient id="SVGID_35_" gradientUnits="userSpaceOnUse" x1="406.2697" y1="-901.3774" x2="405.1435" y2="-896.4051" gradientTransform="matrix(1 0 0 -1 0 -666)">
		<stop  offset="0" style="stop-color:#C8C6C4"/>
		<stop  offset="1" style="stop-color:#E1DFDD"/>
	</linearGradient>
	<path fill="url(#SVGID_35_)" d="M406.5,235.7L406.5,235.7c-2.5-1.4-3.3-4.5-1.9-7l0,0l0,0C407.1,230.1,407.9,233.2,406.5,235.7
		L406.5,235.7z"/>
	<path fill="#C8C6C4" d="M406.5,235.7L406.5,235.7c-2.8,0-5.1-2.3-5.1-5.1l0,0l0,0C404.2,230.5,406.5,232.8,406.5,235.7L406.5,235.7
		z"/>
	<path fill="#E3646A" d="M406.6,236.4v0.2V236.4c-3.7-2.9-8.9-0.1-7.8,4.5c0.8,3.5,3.2,7.8,6.2,7.8c0.7,0,1.1,0,1.6,0
		c0.4,0,0.9,0,1.6,0c3,0,5.4-4.3,6.2-7.8C415.4,236.3,410.2,233.5,406.6,236.4z"/>
	<circle fill="#EE8F94" cx="410.8" cy="238.5" r="1.7"/>
	<circle fill="#E2E2F6" cx="424.4" cy="51.5" r="10.2"/>
	<path fill="#EE8F94" d="M434.3,53.7h-19.8c1,4.6,5.1,8,9.9,8C429.2,61.7,433.3,58.3,434.3,53.7z"/>
	<path fill="#E0BB95" d="M416.5,47l-0.1,4.9c0,1-0.8,1.8-1.8,1.8l0,0l4.2,2.3c3.6,1.7,7.8,1.6,11.3-0.1l3.8-2.2l0,0
		c-1,0-1.9-0.8-1.9-1.9v-5.5L416.5,47z"/>
	
		<radialGradient id="SVGID_36_" cx="515.6963" cy="1090.1949" r="9.2498" gradientTransform="matrix(1 0 0 0.7538 -91.4258 -773.0856)" gradientUnits="userSpaceOnUse">
		<stop  offset="0" style="stop-color:#591C17"/>
		<stop  offset="0.5455" style="stop-color:#7B422B;stop-opacity:0.4543"/>
		<stop  offset="0.9997" style="stop-color:#9B643D;stop-opacity:0"/>
	</radialGradient>
	<polygon fill="url(#SVGID_36_)" points="416.5,47 416.6,56 432.1,55.9 432.1,46.4 	"/>
	<circle fill="#E0BB95" cx="416.9" cy="45.1" r="1.6"/>
	<path fill="#E0BB95" d="M423.6,52.6h1.4c3.9,0,7.1-3.2,7.1-7.2v-0.8c0-3.9-3.2-7.1-7.2-7.1h-1.4c-3.9,0-7.1,3.2-7.1,7.2v0.8
		C416.4,49.4,419.7,52.6,423.6,52.6z"/>
	
		<radialGradient id="SVGID_37_" cx="2825.5227" cy="-968.717" r="3.8019" gradientTransform="matrix(-0.9825 0 0 -0.7951 3200.7334 -724.7935)" gradientUnits="userSpaceOnUse">
		<stop  offset="0" style="stop-color:#9B643D"/>
		<stop  offset="1" style="stop-color:#E0BB95;stop-opacity:0"/>
	</radialGradient>
	<path fill="url(#SVGID_37_)" d="M424.4,40.5c-0.1,3.1,0.9,3.8,1.3,4.4c0.4,0.6,0.1,1.2-0.6,1.5c-0.1,0-0.2,0.1-0.3,0.2
		c-0.2,0.1-0.4,0.4-0.4,0.7l-0.2,5l6.9-0.4l-0.4-10.8C430.8,41.1,424.5,38.5,424.4,40.5z"/>
	<circle fill="#E0BB95" cx="431.6" cy="45.1" r="1.6"/>
	<ellipse fill="#33312D" cx="427.1" cy="44.2" rx="0.5" ry="0.9"/>
	<ellipse fill="#33312D" cx="421.5" cy="44.2" rx="0.5" ry="0.9"/>
	<path opacity="0.6" fill="#231F20" enable-background="new    " d="M422.5,47.8h0.1l3.2,0.4c0,0,0,0,0.1,0c0.2,0.1,0.3,0.2,0.2,0.4
		c-0.3,0.9-1.2,1.5-2.1,1.3c-1-0.1-1.7-0.9-1.8-1.8C422.1,48,422.3,47.8,422.5,47.8z"/>
	<path fill="#F8F8F8" d="M425.8,48.2C425.8,48.2,425.7,48.2,425.8,48.2l-3.2-0.4h-0.1c-0.2,0-0.4,0.1-0.4,0.3
		c0.4,0.1,1.1,0.3,1.9,0.4c0.8,0.1,1.5,0.1,2,0.1C426,48.4,425.9,48.3,425.8,48.2z"/>
</g>
<g>
	<path display="none" fill="#E0BB95" d="M342.8,153c0,0-1.5,0.2-2.5,0.5c-1.8,0.5-2.8,1.4-2.7,1.8c0,0.3,0.3,0.5,0.3,0.5
		s-0.6,0.6,0.3,0.6s2.2-0.7,3.2-0.6s2.2,0.5,3.3,0.1c1.1-0.4,0.6-2,0.6-2L342.8,153z"/>
	<g display="none">
		<path display="inline" fill="#E0BB95" d="M396.1,119.7L396.1,119.7c0,1,0.7,1.7,1.6,1.7l1.6-0.2l-0.5-3.1l-1.2-0.1
			C396.6,118,396.1,118.8,396.1,119.7z"/>
		<path display="inline" fill="#E0BB95" d="M398.2,121L398.2,121c0,0.2,0.1,0.3,0.3,0.3c0,0,1-0.3,2,0c0.3,0.1,0.5-0.1,0.5-0.3l0,0
			c0-0.2-0.1-0.3-0.3-0.3h-2.2C398.3,120.6,398.2,120.8,398.2,121z"/>
		<path display="inline" fill="#E0BB95" d="M398.6,119.1L398.6,119.1c0,0.2,0.1,0.3,0.3,0.3h2.5c0.2,0,0.3-0.1,0.3-0.3l0,0
			c0-0.2-0.1-0.3-0.3-0.3h-2.5C398.7,118.7,398.6,118.9,398.6,119.1z"/>
		<path display="inline" fill="#E0BB95" d="M396.9,118.4L396.9,118.4c0,0.2,0.1,0.3,0.3,0.3h2.5c0.2,0,0.3-0.1,0.3-0.3l0,0
			c0-0.2-0.1-0.3-0.3-0.3h-2.5C397.1,118.1,396.9,118.3,396.9,118.4z"/>
		<g display="inline">
			<path fill="#E0BB95" d="M398.6,119.7L398.6,119.7c0,0.2,0.1,0.3,0.3,0.3c-0.2,0-0.3,0.1-0.3,0.3l0,0c0,0.2,0.1,0.3,0.3,0.3h2.5
				c0.2,0,0.3-0.1,0.3-0.3l0,0c0-0.2,0.2-0.5,0.2-0.6l0,0c0-0.2-0.1-0.3-0.3-0.3h-2.7C398.7,119.4,398.6,119.5,398.6,119.7z"/>
		</g>
	</g>
	
		<linearGradient id="SVGID_38_" gradientUnits="userSpaceOnUse" x1="232.0206" y1="272.6026" x2="260.2536" y2="276.4701" gradientTransform="matrix(0.9133 -0.4073 0.4073 0.9133 56.211 7.4877)">
		<stop  offset="0" style="stop-color:#706F6E"/>
		<stop  offset="0.1226" style="stop-color:#8C8B8A"/>
		<stop  offset="0.3007" style="stop-color:#AFAEAC"/>
		<stop  offset="0.4689" style="stop-color:#C8C7C4"/>
		<stop  offset="0.6215" style="stop-color:#D8D6D3"/>
		<stop  offset="0.7448" style="stop-color:#DDDBD8"/>
	</linearGradient>
	<path display="none" fill="url(#SVGID_38_)" d="M377.4,145.2l12.9-5c7.1-2.2,10.3,3.3,11,7.5l4.2,21.4c0.7,0.7,4.2,0.1,4.2,0.1
		c1.4-0.2,1.7,0.9,0.8,1.3l-6.8,2.8c-0.4,0.2-1,0-1.3-0.4l-0.6-1.7l-8-18c-0.3-0.6-0.5-1.5-1.1-1.2l-10.2,3.4
		c-2.4,1.1-7.6,1.8-9.5-3.5C372.1,148.7,375.3,146.1,377.4,145.2z"/>
	<path display="none" fill="#C4A07C" d="M394.7,121.6c0.5,0.1,0.4,0.3,0.4,0.3s0.9-0.2,0.9,0c0.1,0.4-1,0.9-2,1.3
		c-1,0.5-1.5,1.1-1.6,1.5c-0.2,0.7-1.3,2.1-2.1,2c-0.1,0-1,1.4-1.7,1.7c-0.9,0.5-2.4-2.1-1.3-2.5c1.5-0.6,1.5-1.9,4.4-3.9
		C392.5,121.6,394.4,121.5,394.7,121.6z"/>
	<path display="none" fill="#C4A07C" d="M338.6,155.1c-0.2,0.4,0,0.5,0,0.5s-0.8,0.5-0.7,0.6c0.2,0.3,1.4-0.1,2.3-0.5
		c1.1-0.4,1.7-0.1,2.2-0.1c3.1,0.5,3.5-2.2,2.4-2.6c-1.5-0.6-0.4-0.4-3.9,0.3C340.1,153.5,338.7,154.9,338.6,155.1z"/>
	<circle display="none" fill="#DDDBD8" cx="369.6" cy="150.4" r="8.5"/>
	<path display="none" fill="#DDDBD8" d="M370,147.6l13.3-3.5c7.2-2,9.2,4.3,8.9,9.1l-0.8,23.4c0.5,0.8,4.1-0.3,4.1-0.3
		c1.4-0.2,1.5,1.1,0.5,1.5l-7.2,3.3c-0.5,0.2-1,0-1.1-0.5l-0.2-1.9l-3.7-21.1c-0.1-0.7-0.1-1.7-0.8-1.5l-11.2,2.7
		c-3.1,0.8-6.1-1.5-6.8-4.2C364,151.4,367.7,148.5,370,147.6z"/>
	
		<linearGradient id="SVGID_39_" gradientUnits="userSpaceOnUse" x1="209.009" y1="253.1406" x2="237.9997" y2="237.7926" gradientTransform="matrix(0.9133 -0.4073 0.4073 0.9133 56.211 7.4877)">
		<stop  offset="0" style="stop-color:#515285"/>
		<stop  offset="1" style="stop-color:#6465A3"/>
	</linearGradient>
	<path display="none" fill="url(#SVGID_39_)" d="M357.2,115c2.7-2.4,10.8-5.4,16.3-2.4c2,1.1,7.4,6.3,7.1,15.9
		c-0.4,11.1,0.7,15.3,0.7,15.3l-19.8,8.8c0,0-4-7.4-7.3-18C350.4,122.5,355,116.9,357.2,115z"/>
	<path display="none" fill="#DDDBD8" d="M361.4,152.6c0,0,1.4,6.1,6.6,5.9c5.2-0.1,13.8,0,13.8,0l8.3-12l2.7,12l9.2,0.1
		c0,0-1.9-1.5-5.4-4c-1.1-5.3,3.4-15.8-6.5-17.4c-9.8-1.5-20,11.3-20,11.3L361.4,152.6z"/>
	
		<rect x="371" y="138.3" transform="matrix(0.7071 -0.7071 0.7071 0.7071 11.0802 315.2912)" display="none" fill="#C8C6C4" width="30.2" height="11.9"/>
	<path display="none" fill="#DCB38B" d="M386.3,132.3c1.8,0.3,2.1-1.6,3.2-2.1c1.5-0.7,4.2-1.7,4.1-2.1c0-0.2-1.2-0.1-1.2-0.1
		s0.9-0.3,0.8-0.5s-1.9-0.1-2.5-0.2c0.5-0.3,1.8-1.1,1.6-1.4c-0.1-0.2-1.8,0.8-3.1,1.3c-4,2.2-4.7,2.8-6.5,3.8
		c-1,0.6,0.3,3.9,1.2,3.1C385.6,132.6,386.3,132.3,386.3,132.3z"/>
	<path display="none" fill="#6465A3" d="M368.8,133.4c-2-0.7-3.5-5.9-4.1-9c-0.8-5.3-4.5-7.5-7.1-7.1c-3.2,0.5-5.6,4.3-5.6,8.1
		c0,2.5,2.2,10.7,4.1,13.8c2.3,3.6,4.9,5.1,9.6,4.1c8.8-1.9,18.8-9.6,18.8-9.6s-0.8-3.2-0.9-3.2
		C377.7,132.1,374.1,135.2,368.8,133.4z"/>
	<polygon display="none" fill="#8B8CC7" points="350.6,121.1 341.6,152.8 345.5,152.8 361.7,125.4 	"/>
	<path display="none" fill="#8B8CC7" d="M354.3,115.1c0,0-7.8,6.3-10.3,19.2c-1.6,7.9-1.4,18.8-1.4,18.8s0.2,0.6,1.2,0.9
		c1,0.2,1.6-0.2,1.6-0.2s3.7-11.1,6.4-16.2c2.6-5.1,10-12.3,10-12.3L354.3,115.1z"/>
	<path display="none" fill="#E1DFDD" d="M387,140.1l-12.7,13.2c-3.1,3.1-8.2,3.1-11.3,0l-2.7-2.7l26.3-25.6L387,140.1z"/>
	<path display="none" fill="#E1DFDD" d="M386.6,125l13,27.3c0.3,0.6,0.6,1,1,1.2l2.4,1.3c0.4,0.2,0.2,0.8-0.2,0.8H398
		c-0.7,0-1.3-0.6-1.4-1.3L382.1,137L386.6,125z"/>
	<path display="none" fill="#E0BB95" d="M343.3,155.1c0,0-1.3,1.2-1.9,1.3s-0.4,0.6,0.1,0.6s3.1-0.3,3.6-1.9
		C345.7,153.6,343.3,155.1,343.3,155.1z"/>
	<path display="none" fill="#8B8CC7" d="M381.2,130.1c0,0-11.4,6.1-16.4,4.3c-5.9-2.1-4.4-9.6-5.4-13.2c-0.9-3.3-2.7-7.9-5.3-5.9
		c-5.6,4.5-5.9,11.1-4.2,16.8c2.1,7,5.7,14.1,16,13c10.2-1.1,17.7-12.1,17.7-12.1L381.2,130.1z"/>
	
		<radialGradient id="SVGID_40_" cx="742.972" cy="-46.1322" r="8.0033" gradientTransform="matrix(0.1177 0.993 -1.7119 0.2029 193.7814 -588.5926)" gradientUnits="userSpaceOnUse">
		<stop  offset="0" style="stop-color:#6264A7"/>
		<stop  offset="0.8784" style="stop-color:#8B8CC7"/>
	</radialGradient>
	<path display="none" fill="url(#SVGID_40_)" d="M352.1,136.3c1.7,7.8,8.2,14.2,8.2,14.2l18.4-10.5c0,0-0.3-2.9-0.4-6.4
		C369.9,138.3,366,140.7,352.1,136.3z"/>
	<path display="none" fill="#8B8CC7" d="M359.5,114c0,0-12-1.4-12.2,11.3c-0.1,11.6,6.4,19,13.4,19.1c11.4,0.2,19.7-11.3,19.7-11.3
		l-4.7-3c0,0-4.3,7-12.6,5.1C356.4,133.6,359.5,114,359.5,114z"/>
	<g transform="matrix( 1.042236328125, 0.2442474365234375, -0.2442474365234375, 1.042236328125, -158.1,-258.9) " display="none">
		<g display="inline">
			<g id="Layer1_2_FILL_11_">
				<path fill="#E0BB95" d="M572.4,236.8l1.1,1.1l2.1-0.8c0.5-0.2,0.9-0.4,1.4-0.7c0.4-0.3,0.8-0.5,1-0.7c0.1-0.1,0.4-0.4,0.8-0.8
					c0.3-0.4,0.5-0.6,0.6-0.7c0.1-0.2,0-0.5-0.2-0.7c0.1-0.1,0.2-0.3,0.3-0.5s0.1-0.3,0.1-0.4c-0.1-0.3-0.3-0.3-0.5-0.2l-3,1.7
					l0.3-0.6c0.2-0.5,0.3-0.8,0.4-1.1c0.1-0.2,0-0.4-0.1-0.4c-0.1-0.1-0.3,0-0.5,0.2c-0.5,0.5-0.9,1-1.3,1.5
					c-0.2,0.3-0.5,0.7-0.9,1.2L572.4,236.8z"/>
			</g>
		</g>
	</g>
</g>
</svg>
